<?xml version="1.0" encoding="UTF-8" standalone="no"?>
<svg
   xmlns:dc="http://purl.org/dc/elements/1.1/"
   xmlns:cc="http://creativecommons.org/ns#"
   xmlns:rdf="http://www.w3.org/1999/02/22-rdf-syntax-ns#"
   xmlns:svg="http://www.w3.org/2000/svg"
   xmlns="http://www.w3.org/2000/svg"
   xmlns:sodipodi="http://sodipodi.sourceforge.net/DTD/sodipodi-0.dtd"
   xmlns:inkscape="http://www.inkscape.org/namespaces/inkscape"
   version="1.1"
   id="Layer_1"
   x="0px"
   y="0px"
   width="287.963px"
   height="288.156px"
   viewBox="0 0 287.963 288.156"
   enable-background="new 0 0 287.963 288.156"
   xml:space="preserve"
   sodipodi:docname="triangle.svg"
   inkscape:version="0.92.3 (2405546, 2018-03-11)"><metadata
   id="metadata15"><rdf:RDF><cc:Work
       rdf:about=""><dc:format>image/svg+xml</dc:format><dc:type
         rdf:resource="http://purl.org/dc/dcmitype/StillImage" /></cc:Work></rdf:RDF></metadata><defs
   id="defs13" /><sodipodi:namedview
   pagecolor="#ffffff"
   bordercolor="#666666"
   borderopacity="1"
   objecttolerance="10"
   gridtolerance="10"
   guidetolerance="10"
   inkscape:pageopacity="0"
   inkscape:pageshadow="2"
   inkscape:window-width="3200"
   inkscape:window-height="1675"
   id="namedview11"
   showgrid="false"
   inkscape:zoom="3.2760032"
   inkscape:cx="240.5064"
   inkscape:cy="104.94592"
   inkscape:window-x="-13"
   inkscape:window-y="-13"
   inkscape:window-maximized="1"
   inkscape:current-layer="Layer_1" />
<path
   fill-rule="evenodd"
   clip-rule="evenodd"
   fill="#303F50"
   d="M118.131,285.592c-20.791-3.637-39.736-11.707-56.992-23.798  c-15.905-11.145-28.963-25.02-39.225-41.482c-10.478-16.81-17.308-34.998-20.167-54.646c-1.093-7.515-1.855-15.044-1.736-22.646  c0.322-20.521,4.59-40.141,13.125-58.851c7.683-16.843,18.198-31.676,31.598-44.366C66.12,19.55,91.444,6.839,120.497,2.027  c30.88-5.115,60.504-0.53,88.43,13.553c28.35,14.299,49.68,35.904,63.949,64.26c7.498,14.9,12.078,30.733,14.074,47.381  c2.451,20.458,0.4,40.389-5.592,60.006c-1.016,0.946-1.969,0.688-2.918-0.121c-0.914-0.778-1.764-1.625-2.609-2.473  c-23.082-23.111-46.438-45.955-69.193-69.384c-16.145-16.624-32.709-32.821-48.936-49.358c-0.982-1-2.025-1.993-2.734-3.159  c-0.98-1.608-2.266-2.5-4.065-2.781c-1.079-0.619-1.621-1.744-2.443-2.608c-2.939-3.093-6.182-3.029-9.005,0.211  c-0.922,1.058-1.65,2.255-2.355,3.467c-13.67,23.489-27.121,47.104-40.702,70.644c-14.331,24.839-28.558,49.735-42.932,74.549  c-0.601,1.038-1.131,2.116-1.635,3.205c-1.988,4.299-1.403,6.382,2.55,9.086c0.425,0.291,0.767,0.632,0.985,1.095  c0.145,0.902,0.525,1.6,1.224,2.287c19.89,19.55,39.499,39.381,59.207,59.113C116.987,282.192,119.29,283.095,118.131,285.592z"
   id="path2" />
<path
   d="m 118.13,285.591 c -0.937,-1.033 -1.831,-2.108 -2.816,-3.095 -19.767,-19.781 -39.553,-39.545 -59.283,-59.363 -0.696,-0.699 -2.558,-1.155 -1.363,-2.871 0.643,-1.319 1.896,-1.321 3.089,-1.396 1.696,-0.106 3.397,-0.06 5.096,-0.06 54.372,-0.003 108.742,-0.001 163.113,-0.004 1.6,0 3.201,0.064 4.797,-0.066 5.621,-0.464 7.807,-4.034 5.455,-9.142 -1.797,-3.904 -4.135,-7.529 -6.273,-11.255 -21.133,-36.834 -42.393,-73.595 -63.531,-110.426001 -4.824,-8.406 -9.705,-16.78 -14.44,-25.237 -0.664,-1.187 -1.652,-2.418 -0.188,-3.74 1.389,-0.264 1.902,0.942 2.626,1.666 16.471,16.434 33.143,32.676 49.313,49.402001 24.361,25.198 49.486,49.629 74.113,74.557 1.035,1.049 1.914,2.35 3.52,2.666 -5.387,16.923 -13.533,32.388 -24.568,46.309 -14.992,18.913 -33.691,32.971 -55.762,42.675 -13.563,5.964 -27.752,9.495 -42.404,11.133 -13.56,1.517 -27.085,0.891 -40.494,-1.753 z"
   id="path4"
   inkscape:connector-curvature="0"
   style="clip-rule:evenodd;fill:#222e3b;fill-rule:evenodd" />


</svg>