<?xml version="1.0" encoding="utf-8"?>
<!-- Generator: Adobe Illustrator 17.1.0, SVG Export Plug-In . SVG Version: 6.00 Build 0)  -->
<!DOCTYPE svg PUBLIC "-//W3C//DTD SVG 1.1//EN" "http://www.w3.org/Graphics/SVG/1.1/DTD/svg11.dtd">
<svg version="1.1" id="bluetooth" xmlns="http://www.w3.org/2000/svg" xmlns:xlink="http://www.w3.org/1999/xlink" x="0px" y="0px"
	 viewBox="0 0 1010 1010" enable-background="new 0 0 1010 1010" xml:space="preserve">
<g id="bluetooth-bluetooth">
	<circle id="bluetooth-label" fill="#EFEBDE" cx="505" cy="505" r="505"/>
	<g id="bluetooth-bluetooth_1_">
		<g>
			<path fill="#7CCACB" d="M667.7236,505c0,89.8594-72.8535,162.7129-162.7236,162.7129
				c-89.875,0-162.7236-72.8535-162.7236-162.7129c0-89.8599,72.8486-162.7129,162.7236-162.7129
				C594.8701,342.2871,667.7236,415.1401,667.7236,505z"/>
		</g>
		<g>
			<polyline fill="#EFEBDE" points="505,505 505,787.0488 646.0244,646.0244 646.0244,646.0244 			"/>
		</g>
		<g>
			<polyline fill="#EFEBDE" points="646.0244,363.9756 646.0244,363.9756 505,222.9517 505,505 			"/>
		</g>
		<g>
			<path fill="#55415B" d="M505,797.8984c-1.4014,0-2.8032-0.2597-4.1528-0.831c-4.0542-1.6719-6.6968-5.6279-6.6968-10.0186
				V531.1846l-122.502,122.5019c-4.2412,4.2461-11.104,4.2461-15.3452,0c-4.2358-4.2256-4.2358-11.0986,0-15.3252L489.665,505
				L356.3032,371.6377c-4.2358-4.2256-4.2358-11.0986,0-15.3242c4.2412-4.2461,11.104-4.2461,15.3452,0l122.502,122.5019V222.9517
				c0-4.3921,2.6426-8.3472,6.6968-10.0191c4.0542-1.6924,8.7104-0.7578,11.8257,2.3565l141.0244,141.0244
				c4.2354,4.2256,4.2354,11.0986,0,15.3242L520.335,505l133.3622,133.3613c4.2354,4.2266,4.2354,11.0995,0,15.3252
				L512.6729,794.7109C510.5908,796.7969,507.8184,797.8984,505,797.8984L505,797.8984z M515.8496,531.1846v229.6786
				l114.8291-114.8389L515.8496,531.1846L515.8496,531.1846z M515.8496,249.1357v229.6797l114.8291-114.8398L515.8496,249.1357
				L515.8496,249.1357z"/>
		</g>
	</g>
</g>
</svg>
