<?xml version="1.0" encoding="utf-8"?>
<!-- Generator: Adobe Illustrator 17.1.0, SVG Export Plug-In . SVG Version: 6.00 Build 0)  -->
<!DOCTYPE svg PUBLIC "-//W3C//DTD SVG 1.1//EN" "http://www.w3.org/Graphics/SVG/1.1/DTD/svg11.dtd">
<svg version="1.1" id="bubbles" xmlns="http://www.w3.org/2000/svg" xmlns:xlink="http://www.w3.org/1999/xlink" x="0px" y="0px"
	 viewBox="0 0 1010 1010" enable-background="new 0 0 1010 1010" xml:space="preserve">
<g id="bubbles-bubbles">
	<circle id="bubbles-label" fill="#EFEBDE" cx="505" cy="505" r="505"/>
	<g id="bubbles-bubbles_1_">
		<path fill="#F36360" d="M466.3047,317.1826c-133.5747,0-241.8579,97.0855-241.8579,216.836
			c0,44.1357,14.7378,85.1669,39.9985,119.3974c-3.3228,39.5986-12.8643,95.332-39.9985,122.461
			c0,0,82.9194-11.629,139.0879-45.5586c31.1889,13.1552,66.0166,20.5468,102.77,20.5468
			c133.5801,0,241.8584-97.0957,241.8584-216.8466C708.1631,414.2681,599.8848,317.1826,466.3047,317.1826"/>
		<path fill="#7CCACB" d="M785.5527,450.9595c0-119.7559-108.2881-216.8413-241.8574-216.8413
			c-96.4526,0-179.7041,50.645-218.5288,123.8672c39.728-25.65,88.437-40.8028,141.1382-40.8028
			c133.5801,0,241.8584,97.0855,241.8584,216.836c0,45.7968-15.8955,88.2822-42.9317,123.2802
			c54.1553,26.1855,120.3213,35.5186,120.3213,35.5186c-27.1181-27.1494-36.6806-82.8828-40.0029-122.46
			C770.8105,536.127,785.5527,495.0952,785.5527,450.9595"/>
	</g>
</g>
</svg>
