<?xml version="1.0" encoding="utf-8"?>
<!-- Generator: Adobe Illustrator 17.1.0, SVG Export Plug-In . SVG Version: 6.00 Build 0)  -->
<!DOCTYPE svg PUBLIC "-//W3C//DTD SVG 1.1//EN" "http://www.w3.org/Graphics/SVG/1.1/DTD/svg11.dtd">
<svg version="1.1" id="chat-sessie" xmlns="http://www.w3.org/2000/svg" xmlns:xlink="http://www.w3.org/1999/xlink" x="0px"
	 y="0px" viewBox="0 0 1010 1010" enable-background="new 0 0 1010 1010" xml:space="preserve">
<g id="chat-sessie-chat-sessie">
	<circle id="chat-sessie-label" fill="#EFEBDE" cx="505" cy="505" r="505"/>
	<g id="chat-sessie-chat-sessie_1_">
		<g>
			<path fill="#4A374F" d="M441.0234,452.3716H312.1572c-5.9804,0-10.8388-4.8487-10.8388-10.834
				c0-5.9805,4.8584-10.8286,10.8388-10.8286h128.8662c5.9805,0,10.8291,4.8481,10.8291,10.8286
				C451.8525,447.5229,447.0039,452.3716,441.0234,452.3716L441.0234,452.3716z"/>
		</g>
		<g>
			<path fill="#4A374F" d="M569.9004,511.8477H312.1572c-5.9804,0-10.8388-4.8497-10.8388-10.8345
				c0-5.9805,4.8584-10.8286,10.8388-10.8286h257.7432c5.9805,0,10.8291,4.8481,10.8291,10.8286
				C580.7295,506.998,575.8809,511.8477,569.9004,511.8477L569.9004,511.8477z"/>
		</g>
		<g>
			<path fill="#4A374F" d="M569.9004,571.3223H312.1572c-5.9804,0-10.8388-4.8477-10.8388-10.8282
				c0-5.9911,4.8584-10.8291,10.8388-10.8291h257.7432c5.9805,0,10.8291,4.838,10.8291,10.8291
				C580.7295,566.4746,575.8809,571.3223,569.9004,571.3223L569.9004,571.3223z"/>
		</g>
		<path fill="#F36360" d="M749.0283,239.7192H410.6035c-27.0049,0-48.8906,15.522-48.8906,42.4898v60.6958l248.5234-0.5088
			c26.9942,0,48.8799,21.8965,48.8799,48.8804V574.084l69.3858,76.3418V541.3594h20.5262c26.9942,0,48.8701-21.8653,48.8701-48.8545
			V282.9204C797.8984,255.9316,776.0225,239.7192,749.0283,239.7192z"/>
		<path fill="#55415B" d="M659.1162,391.2764v209.5742c0,26.9941-21.8857,48.8594-48.8701,48.8594l-169.2227,0.7158
			l-99.1308,109.0264V650.4258h-70.1021c-26.9839,0-48.8598-21.8965-48.8598-48.8692V391.9668
			c0-26.9839,21.8759-49.5708,48.8598-49.5708h338.4556C637.2305,342.396,659.1162,364.2925,659.1162,391.2764z"/>
		<g>
			<path fill="#7CCACB" d="M344.748,496.4189c0,15.9424-12.916,28.8584-28.874,28.8584c-15.9365,0-28.8628-12.916-28.8628-28.8584
				c0-15.958,12.9263-28.8891,28.8628-28.8891C331.832,467.5298,344.748,480.4609,344.748,496.4189z"/>
			<path fill="#F36360" d="M469.8975,496.4189c0,15.9424-12.9366,28.8584-28.8946,28.8584
				c-15.9267,0-28.8735-12.916-28.8735-28.8584c0-15.958,12.9468-28.8891,28.8735-28.8891
				C456.9609,467.5298,469.8975,480.4609,469.8975,496.4189z"/>
			<path fill="#FBCD64" d="M595.0361,496.4189c0,15.9424-12.9257,28.8584-28.8935,28.8584
				c-15.9483,0-28.8633-12.916-28.8633-28.8584c0-15.958,12.915-28.8891,28.8633-28.8891
				C582.1104,467.5298,595.0361,480.4609,595.0361,496.4189z"/>
		</g>
	</g>
</g>
</svg>
