<?xml version="1.0" encoding="utf-8"?>
<!-- Generator: Adobe Illustrator 17.1.0, SVG Export Plug-In . SVG Version: 6.00 Build 0)  -->
<!DOCTYPE svg PUBLIC "-//W3C//DTD SVG 1.1//EN" "http://www.w3.org/Graphics/SVG/1.1/DTD/svg11.dtd">
<svg version="1.1" id="contact-card" xmlns="http://www.w3.org/2000/svg" xmlns:xlink="http://www.w3.org/1999/xlink" x="0px"
	 y="0px" viewBox="0 0 1010 1010" enable-background="new 0 0 1010 1010" xml:space="preserve">
<g id="contact-card-contact-card">
	<circle id="contact-card-label" fill="#D5D0BB" cx="505" cy="505" r="505"/>
	<g id="contact-card-contact-card_1_">
		<g>
			<path fill="#EFEBDE" d="M787.7959,737.2754c0,11.1094-12.459,20.1104-27.8564,20.1104H250.0811
				c-15.3975,0-27.877-9.001-27.877-20.1104V369.6445c0-11.1196,12.4795-20.1103,27.877-20.1103h509.8585
				c15.3974,0,27.8564,8.9907,27.8564,20.1103V737.2754z"/>
		</g>
		<g>
			<path fill="#7CCACB" d="M250.0811,252.6143c-15.3975,0-27.877,12.5107-27.877,27.8867v73.9228h80.0381l84.2949-101.8095H250.0811
				z"/>
			<polygon fill="#F36360" points="386.5371,252.6143 302.2422,354.4238 455.9746,354.4238 540.29,252.6143 			"/>
			<polygon fill="#FBCD64" points="540.29,252.6143 455.9746,354.4238 609.7168,354.4238 694.0322,252.6143 			"/>
			<path fill="#55415B" d="M787.7959,280.501c0-15.376-12.459-27.8867-27.8564-27.8867h-65.9073l-84.3154,101.8095h178.0791V280.501
				z"/>
			<rect x="225.9209" y="354.4238" fill="#D5D0BB" width="558.1895" height="2.7412"/>
		</g>
		<g>
			<path fill="#D5D0BB" d="M464.1035,630.1699c0,3.291-2.6787,5.9805-6.0112,5.9805H260.4424c-3.3115,0-5.9902-2.6895-5.9902-5.9805
				V432.5205c0-3.333,2.6787-5.9907,5.9902-5.9907h197.6499c3.3325,0,6.0112,2.6577,6.0112,5.9907V630.1699z"/>
			<path fill="#A09C8C" d="M438.7813,614.8145l-163.7305-0.3321c0,0,2.917-17.9306,5.1181-25.5928
				c2.17-7.6728,1.4434-10.5898,13.5181-17.1728c12.0435-6.582,31.064-13.8906,33.2549-16.1025
				c1.9829-1.9522,12.687-9.542,14.7739-11.0264c0-0.0205,0-0.0205,0-0.0205c0.2393-0.7891,0.3843-2.6786,0.4678-4.8487
				c-1.9316-5.5029-8.4932-12.4687-11.5977-17.121c-3.4155-5.1602-4.3086-18.0962-3.706-32.4444
				c0.5605-14.3799,13.7666-23.2773,13.7666-23.2773c23.2568-12.6358,34.1689-4.5894,40.772-2.2739
				c6.6137,2.2739,14.0786,3.7167,14.9506,8.0151c0.8409,4.3086,1.1319,13.7983,1.4122,18.9687
				c0.2695,4.7139-4.7344,14.0162-5.6065,15.5528c-0.1665,6.624-0.4775,15.3144-0.9863,18.0342
				c-0.8721,4.5996-4.2989,11.4931-8.0362,18.0966c0,0-0.2392,0.5713-0.6855,1.4014h0.374c0,0-1.4326,4.7656,20.4741,15.6982
				c21.9175,10.9844,27.7832,19.0205,29.9634,26.3194C435.459,594.0078,438.7813,614.8145,438.7813,614.8145z"/>
		</g>
		<rect x="501.5742" y="428.2529" fill="#D5D0BB" width="241.961" height="32.4453"/>
		<rect x="501.5742" y="501.0132" fill="#D5D0BB" width="241.961" height="16.768"/>
		<rect x="501.5742" y="547.1113" fill="#D5D0BB" width="241.961" height="16.7774"/>
		<rect x="501.5742" y="593.1982" fill="#D5D0BB" width="241.961" height="16.7676"/>
		<rect x="254.4521" y="685.9023" fill="#D5D0BB" width="496.2999" height="19.9141"/>
	</g>
</g>
</svg>
