<?xml version="1.0" encoding="utf-8"?>
<!-- Generator: Adobe Illustrator 17.1.0, SVG Export Plug-In . SVG Version: 6.00 Build 0)  -->
<!DOCTYPE svg PUBLIC "-//W3C//DTD SVG 1.1//EN" "http://www.w3.org/Graphics/SVG/1.1/DTD/svg11.dtd">
<svg version="1.1" id="corded-phone" xmlns="http://www.w3.org/2000/svg" xmlns:xlink="http://www.w3.org/1999/xlink" x="0px"
	 y="0px" viewBox="0 0 1010 1010" enable-background="new 0 0 1010 1010" xml:space="preserve">
<g id="corded-phone-corded-phone">
	<circle id="corded-phone-label" fill="#7CCACB" cx="505" cy="505" r="505"/>
	<g id="corded-phone-corded-phone_1_">
		<g>
			<path fill="#D5D0BB" d="M212.1123,788.1279c-0.9653,0-1.9414-0.1455-2.917-0.4258c-5.3369-1.6093-8.3682-7.2363-6.7695-12.5732
				l22-73.3408c1.6924-5.6895,6.8423-9.5518,12.7915-9.583c6.0425,0.3222,11.1714,3.8105,12.9263,9.5205l12.3237,41.1142
				l12.3237-41.0517c1.7031-5.71,6.8628-9.5625,12.833-9.583c0,0,0.0205,0,0.041,0c5.9493,0,11.1094,3.831,12.8643,9.5205
				l12.3237,41.1357l12.3135-41.0732c1.7544-5.7725,6.9253-9.583,12.8745-9.583c0.041,0,0.0723,0,0.1035,0
				c5.9698,0.0517,11.1197,3.9248,12.7808,9.666l12.3135,41l12.3134-41.083c1.7027-5.7315,6.8833-9.583,12.8638-9.583
				s11.1509,3.8515,12.8638,9.583l12.3345,41.0937l12.3339-41.0937c1.6822-5.6895,6.8213-9.5518,12.8018-9.583
				c5.5962,0.041,11.1611,3.8105,12.916,9.5205l7.6099,25.3545c7.3198,24.4395,29.3716,40.8438,54.8813,40.8438
				c26.7451,0,49.6797-18.1689,55.7744-44.1972c1.2559-5.4307,6.7071-8.7735,12.127-7.5274
				c5.4394,1.2656,8.8144,6.707,7.5371,12.126c-8.2334,35.2178-39.2656,59.8027-75.4385,59.8027
				c-34.5107,0-64.3398-22.1972-74.2343-55.2451l-1.1211-3.706l-12.3135,41.0937c-1.7027,5.7315-6.8731,9.5928-12.874,9.5928
				c-5.9908,0-11.1612-3.8613-12.8741-9.6133l-12.3242-41.0527l-12.3237,41.0732c-1.7236,5.7412-6.8941,9.5928-12.8638,9.5928
				c-0.0107,0-0.0107,0-0.021,0c-5.98-0.0205-11.1401-3.8721-12.853-9.6133l-12.3242-41.0527l-12.3032,41.0732
				c-1.7129,5.7315-6.8731,9.5928-12.8741,9.5928c-6.0009,0-11.1611-3.8613-12.8842-9.6133l-12.3038-41.0732l-12.3447,41.0937
				c-1.7021,5.7207-6.8623,9.5723-12.832,9.5928c-0.021,0-0.021,0-0.021,0c-5.9702,0-11.1401-3.8516-12.8535-9.582L237.29,729.2187
				l-15.5117,51.7042C220.4497,785.3037,216.4521,788.1279,212.1123,788.1279L212.1123,788.1279z"/>
		</g>
		<path fill="#EFEBDE" d="M654.9844,617.0156l-60.2803-46.9179c-16.249-12.6661-40.8965-12.5625-57.0615,0.207l-13.3936,10.5908
			c-10.1025,7.9834-25.4785,7.0596-34.5527-1.9932L381.896,471.0596c-9.3335-9.3335-10.1958-24.1807-2.0142-34.542l10.5694-13.3985
			c13.2583-16.7519,13.3413-40.206,0.2177-57.0254l-46.9179-60.2695c-8.8042-11.3535-22.104-17.8633-36.4942-17.8633
			c-12.3134,0-23.9106,4.8072-32.6523,13.5284l-38.5088,38.5083c-16.6113,16.6118-56.937,84.6997,121.5264,263.1577
			c113.1884,113.1884,182.2002,136.9541,220.1592,136.9541c22.7675,0,35.9433-8.3994,42.9824-15.4385l38.4883-38.498
			c9.375-9.3653,14.2753-22.3223,13.455-35.5499C671.8867,637.4062,665.4287,625.1553,654.9844,617.0156z"/>
		<g>
			<path fill="#F36360" d="M774.5684,221.8721H550.8281c-18.1279,0-33.4316,15.3037-33.4316,33.4209v153.8672
				c0,18.1064,15.3037,33.4052,33.4316,33.4052h31.8633v41.1817c0,4.1689,2.5645,7.917,6.458,9.417
				c1.1836,0.4619,2.419,0.6796,3.6445,0.6796c2.792,0,5.5235-1.1523,7.4756-3.3012l43.6055-47.9771h130.6934
				c18.4395,0,33.4316-14.9873,33.4316-33.4052V255.293C808,236.8643,793.0078,221.8721,774.5684,221.8721z"/>
			<g opacity="0.8">
				<g>
					<path fill="#B64A48" d="M650.9971,295.9971h-75.1161c-5.586,0-10.1026-4.5215-10.1026-10.1021
						c0-5.5757,4.5166-10.0971,10.1026-10.0971h75.1161c5.5859,0,10.1025,4.5214,10.1025,10.0971
						C661.0996,291.4756,656.583,295.9971,650.9971,295.9971L650.9971,295.9971z"/>
				</g>
				<g>
					<path fill="#B64A48" d="M747.2217,343.3979H575.8809c-5.586,0-10.1026-4.5219-10.1026-10.0971
						c0-5.5801,4.5166-10.1016,10.1026-10.1016h171.3408c5.5849,0,10.1015,4.5215,10.1015,10.1016
						C757.3232,338.876,752.8066,343.3979,747.2217,343.3979L747.2217,343.3979z"/>
				</g>
				<g>
					<path fill="#B64A48" d="M747.2217,390.8037H575.8809c-5.586,0-10.1026-4.5215-10.1026-10.1016
						c0-5.5756,4.5166-10.0971,10.1026-10.0971h171.3408c5.5849,0,10.1015,4.5215,10.1015,10.0971
						C757.3232,386.2822,752.8066,390.8037,747.2217,390.8037L747.2217,390.8037z"/>
				</g>
			</g>
		</g>
	</g>
</g>
</svg>
