<?xml version="1.0" encoding="utf-8"?>
<!-- Generator: Adobe Illustrator 17.1.0, SVG Export Plug-In . SVG Version: 6.00 Build 0)  -->
<!DOCTYPE svg PUBLIC "-//W3C//DTD SVG 1.1//EN" "http://www.w3.org/Graphics/SVG/1.1/DTD/svg11.dtd">
<svg version="1.1" id="double-bubbles" xmlns="http://www.w3.org/2000/svg" xmlns:xlink="http://www.w3.org/1999/xlink" x="0px"
	 y="0px" viewBox="0 0 1010 1010" enable-background="new 0 0 1010 1010" xml:space="preserve">
<g id="double-bubbles-double-bubbles">
	<circle id="double-bubbles-label" fill="#55415B" cx="505" cy="505" r="505"/>
	<g id="double-bubbles-double-bubbles_1_">
		<path fill="#FBCD64" d="M423.436,466.8965c5.0664,0,9.0743,3.7275,9.9361,8.5293l178.2138-31.4536
			c-0.1142-0.5816-0.3535-1.1265-0.3535-1.7442c0-5.6899,4.5996-10.289,10.2794-10.289H773.001
			c5.6787,0,10.2685,4.5991,10.2685,10.289v256.3413c0,5.6895-4.5898,10.2784-10.2685,10.2784h-45.2569l23.5372,65.1709
			c1.5048,4.1738,0.1757,8.8349-3.3125,11.5761c-1.8584,1.4639-4.1211,2.2012-6.3643,2.2012c-1.9727,0-3.9346-0.5605-5.669-1.7031
			l-116.957-77.2451H423.436c-5.6899,0-10.2788-4.5889-10.2788-10.2784V477.1802
			C413.1572,471.5063,417.7461,466.8965,423.436,466.8965z"/>
		<path fill="#F36360" d="M237.0098,222.1992h372.8525c5.6895,0,10.2783,4.6045,10.2783,10.2886v233.0327
			c0,5.6899-4.5887,10.2842-10.2783,10.2842H404.5088l-116.958,77.2451c-1.7129,1.1416-3.6856,1.7129-5.6582,1.7129
			c-2.253,0-4.4956-0.7373-6.354-2.2012c-3.4888-2.7412-4.8174-7.4023-3.312-11.5761l23.5263-65.1807h-58.7431
			c-5.7002,0-10.2891-4.5943-10.2891-10.2842V232.4878C226.7207,226.8037,231.3096,222.1992,237.0098,222.1992z"/>
		<g>
			<path fill="#B64A48" d="M306.9141,312.6865h256.331c5.6895,0,10.2891-4.6094,10.2891-10.289
				c0-5.6788-4.5996-10.2784-10.2891-10.2784h-256.331c-5.669,0-10.2784,4.5996-10.2784,10.2784
				C296.6357,308.0771,301.2451,312.6865,306.9141,312.6865L306.9141,312.6865z"/>
		</g>
		<g>
			<path fill="#B64A48" d="M306.9141,359.2881h256.331c5.6895,0,10.2891-4.5943,10.2891-10.2735
				c0-5.6894-4.5996-10.289-10.2891-10.289h-256.331c-5.669,0-10.2784,4.5996-10.2784,10.289
				C296.6357,354.6938,301.2451,359.2881,306.9141,359.2881L306.9141,359.2881z"/>
		</g>
		<g>
			<path fill="#B64A48" d="M306.9141,405.9053h139.8095c5.7002,0,10.2891-4.6153,10.2891-10.2891s-4.5889-10.2842-10.2891-10.2842
				H306.9141c-5.669,0-10.2784,4.6104-10.2784,10.2842S301.2451,405.9053,306.9141,405.9053L306.9141,405.9053z"/>
		</g>
		<g>
			<path fill="#BC9A4B" d="M493.3408,545.7197h233.0537c5.6895,0,10.2891-4.5996,10.2891-10.2783
				c0-5.6894-4.5996-10.2891-10.2891-10.2891H493.3408c-5.6689,0-10.2788,4.5997-10.2788,10.2891
				C483.062,541.1201,487.6719,545.7197,493.3408,545.7197L493.3408,545.7197z"/>
		</g>
		<g>
			<path fill="#BC9A4B" d="M493.3408,592.3369h233.0537c5.6895,0,10.2891-4.6103,10.2891-10.2998
				c0-5.668-4.5996-10.2783-10.2891-10.2783H493.3408c-5.6689,0-10.2788,4.6103-10.2788,10.2783
				C483.062,587.7266,487.6719,592.3369,493.3408,592.3369L493.3408,592.3369z"/>
		</g>
		<g>
			<path fill="#BC9A4B" d="M493.3408,638.9326h139.8194c5.6894,0,10.289-4.5889,10.289-10.2783
				c0-5.6797-4.5996-10.2783-10.289-10.2783H493.3408c-5.6689,0-10.2788,4.5986-10.2788,10.2783
				C483.062,634.3437,487.6719,638.9326,493.3408,638.9326L493.3408,638.9326z"/>
		</g>
	</g>
</g>
</svg>
