<?xml version="1.0" encoding="utf-8"?>
<!-- Generator: Adobe Illustrator 17.1.0, SVG Export Plug-In . SVG Version: 6.00 Build 0)  -->
<!DOCTYPE svg PUBLIC "-//W3C//DTD SVG 1.1//EN" "http://www.w3.org/Graphics/SVG/1.1/DTD/svg11.dtd">
<svg version="1.1" id="headset" xmlns="http://www.w3.org/2000/svg" xmlns:xlink="http://www.w3.org/1999/xlink" x="0px" y="0px"
	 viewBox="0 0 1010 1010" enable-background="new 0 0 1010 1010" xml:space="preserve">
<g id="headset-headset">
	<circle id="headset-label" fill="#7CCACB" cx="505" cy="505" r="505"/>
	<g id="headset-headset_1_">
		<g>
			<g>
				<path fill="#EFEBDE" d="M722.9473,609.7891c0.457-1.7334,13.8506,0.748,14.2031-1.0069l-21.9063-5.5439
					c-0.6962,4.2363-1.5468,8.4824-2.6064,12.7285c-16.124,63.6133-70.3096,107.5205-132.1055,113.5625l-1.4012,7.7148
					C647.4365,731.5234,703.4902,686.4844,722.9473,609.7891z"/>
			</g>
			<path fill="#D5D0BB" d="M599.833,752.1943c-5.6172,19.5088-26.0185,30.8359-45.5791,25.2295
				c-19.5605-5.6064-30.8975-26.0391-25.2705-45.5888c5.6172-19.5714,26.0186-30.8672,45.5996-25.25
				C594.1123,712.1914,605.4395,732.6035,599.833,752.1943z"/>
			<g>
				<path fill="#EFEBDE" d="M505.0107,237.9229c-126.4062,0-228.8906,102.4536-228.8906,228.8906h33.0469l0,0
					c0-108.1641,87.6592-195.8535,195.8437-195.8535c108.1534,0,195.8018,87.6894,195.8018,195.8535l0,0h33.0781
					C733.8906,340.3765,631.4063,237.9229,505.0107,237.9229z"/>
			</g>
			<path fill="#55415B" d="M660.5176,466.4502c0-6.7383,5.5029-12.2305,12.2304-12.2305h14.8682
				c6.749,0,12.2197,5.4922,12.2197,12.2305v170.998c0,6.7178-5.4707,12.2413-12.2197,12.2413H672.748
				c-6.7275,0-12.2304-5.5235-12.2304-12.2413V466.4502z"/>
			<path fill="#FBCD64" d="M750.6582,484.4014c24.0557,14.1513,40.2627,40.2216,40.2627,70.1328
				c0,29.9013-16.207,56.0029-40.2627,70.123V484.4014z"/>
			<path fill="#F36360" d="M754.7285,472.2334c0-6.292-5.1191-11.4209-11.4005-11.4209h-43.0038v182.2734h43.0038
				c6.2813,0,11.4005-5.1289,11.4005-11.4004V472.2334z"/>
			<path fill="#55415B" d="M349.5029,466.4502c0-6.7383-5.5132-12.2305-12.2719-12.2305h-14.8472
				c-6.707,0-12.2197,5.4922-12.2197,12.2305v170.998c0,6.7178,5.5127,12.2413,12.2197,12.2413h14.8472
				c6.7587,0,12.2719-5.5235,12.2719-12.2413V466.4502z"/>
			<path fill="#FBCD64" d="M259.332,484.4014c-24.0664,14.1513-40.2422,40.2216-40.2422,70.1328
				c0,29.9013,16.1758,56.0029,40.2422,70.123V484.4014z"/>
			<path fill="#F36360" d="M255.2725,472.2334c0-6.292,5.1699-11.4209,11.3994-11.4209h43.0351v182.2734h-43.0351
				c-6.2295,0-11.3994-5.1289-11.3994-11.4004V472.2334z"/>
			<g>
				<path fill="#D5D0BB" d="M505.0205,231.1538c-63.8721-0.021-121.7851,25.5093-164.208,66.8208l32.9126,32.8814l0,0l1.9937-1.8584
					c33.8154-31.7808,79.2275-51.2271,129.3017-51.2271c50.0957,0,95.4971,19.4463,129.3027,51.2271l1.962,1.8584l0,0
					l32.9023-32.8814C626.8066,256.6631,568.9043,231.1328,505.0205,231.1538z"/>
			</g>
		</g>
	</g>
</g>
</svg>
