<?xml version="1.0" encoding="utf-8"?>
<!-- Generator: Adobe Illustrator 17.1.0, SVG Export Plug-In . SVG Version: 6.00 Build 0)  -->
<!DOCTYPE svg PUBLIC "-//W3C//DTD SVG 1.1//EN" "http://www.w3.org/Graphics/SVG/1.1/DTD/svg11.dtd">
<svg version="1.1" id="inbox-mail" xmlns="http://www.w3.org/2000/svg" xmlns:xlink="http://www.w3.org/1999/xlink" x="0px" y="0px"
	 viewBox="0 0 1010 1010" enable-background="new 0 0 1010 1010" xml:space="preserve">
<g id="inbox-mail-inbox-mail">
	<circle id="inbox-mail-label" fill="#7CCACB" cx="505" cy="505" r="505"/>
	<g id="inbox-mail-inbox-mail_1_">
		<path fill="#B64A48" d="M457.106,443.4424H332.5693l-95.6328,143.2461c-0.0776,0.208,0.0781,0.457,0.3169,0.457h162.3653v67.0703
			h210.7622v-67.0703h162.3603c0.2285,0,0.3945-0.249,0.3223-0.457l-95.6328-143.2461H552.8945"/>
		<g>
			<polygon fill="#EFEBDE" points="697.7188,334.8945 574.9355,212.1021 303.0313,212.1021 303.0313,720.8184 697.7188,720.8184 			
				"/>
			<path fill="#D5D0BB" d="M390.7417,413.832h219.2661c4.8594,0,8.7735-3.914,8.7735-8.7627c0-4.8589-3.9141-8.7832-8.7735-8.7832
				H390.7417c-4.833,0-8.7783,3.9243-8.7783,8.7832C381.9634,409.918,385.9087,413.832,390.7417,413.832"/>
			<path fill="#D5D0BB" d="M390.7417,343.668h87.7056c4.8535,0,8.7783-3.9141,8.7783-8.7735c0-4.8486-3.9248-8.7729-8.7783-8.7729
				h-87.7056c-4.833,0-8.7783,3.9243-8.7783,8.7729C381.9634,339.7539,385.9087,343.668,390.7417,343.668"/>
			<path fill="#D5D0BB" d="M610.0078,466.4502H390.7417c-4.833,0-8.7783,3.9346-8.7783,8.7832s3.9453,8.7627,8.7783,8.7627h219.2661
				c4.8594,0,8.7735-3.9141,8.7735-8.7627S614.8672,466.4502,610.0078,466.4502"/>
			<path fill="#D5D0BB" d="M610.0078,536.625H390.7417c-4.833,0-8.7783,3.9238-8.7783,8.7734c0,4.8584,3.9453,8.7725,8.7783,8.7725
				h219.2661c4.8594,0,8.7735-3.9141,8.7735-8.7725C618.7813,540.5488,614.8672,536.625,610.0078,536.625"/>
			<path fill="#D5D0BB" d="M610.0078,606.7891H390.7417c-4.833,0-8.7783,3.9248-8.7783,8.7832c0,4.8379,3.9453,8.7529,8.7783,8.7529
				h219.2661c4.8594,0,8.7735-3.915,8.7735-8.7529C618.7813,610.7139,614.8672,606.7891,610.0078,606.7891"/>
			<polygon fill="#D5D0BB" points="574.9355,212.1021 574.9355,334.8945 697.7188,334.8945 			"/>
		</g>
		<path fill="#F36360" d="M610.3809,587.1455v67.0703H399.6187v-67.0703H237.2534c-0.2593,0-0.4829,0.2178-0.4829,0.4883v187.4228
			c0,12.6045,10.2373,22.8418,22.8311,22.8418h490.7968c12.5938,0,22.8311-10.2373,22.8311-22.8418V587.6338
			c0-0.2705-0.2178-0.4883-0.4883-0.4883H610.3809z"/>
	</g>
</g>
</svg>
