<?xml version="1.0" encoding="utf-8"?>
<!-- Generator: Adobe Illustrator 17.1.0, SVG Export Plug-In . SVG Version: 6.00 Build 0)  -->
<!DOCTYPE svg PUBLIC "-//W3C//DTD SVG 1.1//EN" "http://www.w3.org/Graphics/SVG/1.1/DTD/svg11.dtd">
<svg version="1.1" id="loving-kiss-smiley" xmlns="http://www.w3.org/2000/svg" xmlns:xlink="http://www.w3.org/1999/xlink" x="0px"
	 y="0px" viewBox="0 0 1010 1010" enable-background="new 0 0 1010 1010" xml:space="preserve">
<g id="loving-kiss-smiley-loving-kiss-smiley">
	<circle id="loving-kiss-smiley-label" fill="#55415B" cx="505" cy="505" r="505"/>
	<g id="loving-kiss-smiley-loving-kiss-smiley_1_">
		<g>
			<path fill="#FBCD64" d="M754.9355,505c0,133.0605-107.8837,240.9551-240.9492,240.9551
				c-133.0713,0-240.9502-107.8946-240.9502-240.9551c0-133.0664,107.8789-240.9497,240.9502-240.9497
				C647.0518,264.0503,754.9355,371.9336,754.9355,505z"/>
			<path fill="#FBCD64" d="M513.9863,756.3789c-138.6157,0-251.3842-112.7529-251.3842-251.3789
				c0-138.6206,112.7686-251.3838,251.3842-251.3838c138.6094,0,251.3839,112.7632,251.3839,251.3838
				C765.3701,643.626,652.5957,756.3789,513.9863,756.3789L513.9863,756.3789z M513.9863,274.4844
				c-127.1015,0-230.5156,103.4092-230.5156,230.5156c0,127.1016,103.4141,230.5098,230.5156,230.5098
				c127.1065,0,230.5147-103.4082,230.5147-230.5098C744.501,377.8936,641.0928,274.4844,513.9863,274.4844L513.9863,274.4844z"/>
		</g>
		<g>
			<path fill="#BC9A4B" d="M456.3169,454.0068c-5.7671,0-10.4395-4.667-10.4395-10.4345c0-19.69-16.0151-35.7154-35.705-35.7154
				c-19.6851,0-35.7051,16.0254-35.7051,35.7154c0,5.7675-4.6665,10.4345-10.4341,10.4345c-5.7627,0-10.4346-4.667-10.4346-10.4345
				c0-31.1993,25.3799-56.5889,56.5738-56.5889c31.1992,0,56.5786,25.3896,56.5786,56.5889
				C466.751,449.3398,462.0791,454.0068,456.3169,454.0068L456.3169,454.0068z"/>
		</g>
		<g>
			<path fill="#BC9A4B" d="M663.9336,454.0068c-5.752,0-10.4336-4.667-10.4336-10.4345c0-19.69-16.0205-35.7154-35.7051-35.7154
				c-19.6855,0-35.7051,16.0254-35.7051,35.7154c0,5.7675-4.6621,10.4345-10.4345,10.4345c-5.752,0-10.4346-4.667-10.4346-10.4345
				c0-31.1993,25.3848-56.5889,56.5742-56.5889c31.209,0,56.584,25.3896,56.584,56.5889
				C674.3789,449.3398,669.707,454.0068,663.9336,454.0068L663.9336,454.0068z"/>
		</g>
		<g>
			<path fill="#BC9A4B" d="M558.9258,669.6758c-3.3633,0.0097-6.6651-1.6309-8.6797-4.6416
				c-3.1973-4.7969-1.9102-11.2754,2.8867-14.4727l36.0059-23.9941l-35.9951-23.9932c-2.918-1.9316-4.6416-5.1914-4.6416-8.6797
				c0-3.4892,1.7236-6.749,4.6308-8.6797l36.0059-24.0146l-36.0059-23.9941c-4.7969-3.1983-6.084-9.6768-2.8867-14.4727
				c3.1982-4.7969,9.6768-6.085,14.4736-2.8975l49.0255,32.674c2.9072,1.9316,4.6416,5.201,4.6416,8.6904
				c0,3.4775-1.7344,6.748-4.6416,8.6797L577.75,593.8945l35.9951,23.9825c2.9072,1.9316,4.6416,5.1914,4.6416,8.6796
				c0,3.4893-1.7344,6.7491-4.6416,8.6906l-49.0255,32.6836C562.9336,669.1143,560.9199,669.6758,558.9258,669.6758
				L558.9258,669.6758z"/>
		</g>
		<path fill="#F36360" d="M825.8789,655.2646c5.0449-11.5459,16.5908-19.6337,29.9844-19.6337
			c18.0859,0,31.1055,14.9404,32.7461,32.7363c0,0,0.8613,4.4121-1.0703,12.3652c-2.6573,10.8291-8.877,20.4531-17.2657,27.8047
			l-44.3945,38.248l-43.6797-38.248c-8.3779-7.3516-14.5976-16.9756-17.2441-27.8047c-1.9317-7.9531-1.0596-12.3652-1.0596-12.3652
			c1.6406-17.7959,14.6602-32.7363,32.7256-32.7363C810.0352,635.6309,820.8018,643.7187,825.8789,655.2646z"/>
		<path fill="#F36360" d="M735.3652,543.3008c5.0664-11.5762,16.5909-19.6328,30.0254-19.6328
			c18.0656,0,31.0645,14.9189,32.7051,32.7245c0,0,0.8711,4.4229-1.0596,12.3554c-2.6474,10.8389-8.8662,20.4532-17.2451,27.793
			l-44.4258,38.2695l-43.6484-38.2695c-8.3887-7.3398-14.5977-16.9541-17.2656-27.793c-1.9317-7.9326-1.0489-12.3554-1.0489-12.3554
			c1.6202-17.8057,14.6397-32.7245,32.7256-32.7245C719.542,523.668,730.3184,531.7246,735.3652,543.3008z"/>
	</g>
</g>
</svg>
