<?xml version="1.0" encoding="utf-8"?>
<!-- Generator: Adobe Illustrator 17.1.0, SVG Export Plug-In . SVG Version: 6.00 Build 0)  -->
<!DOCTYPE svg PUBLIC "-//W3C//DTD SVG 1.1//EN" "http://www.w3.org/Graphics/SVG/1.1/DTD/svg11.dtd">
<svg version="1.1" id="mailbox" xmlns="http://www.w3.org/2000/svg" xmlns:xlink="http://www.w3.org/1999/xlink" x="0px" y="0px"
	 viewBox="0 0 1010 1010" enable-background="new 0 0 1010 1010" xml:space="preserve">
<g id="mailbox-mailbox">
	<circle id="mailbox-label_1_" fill="#F36360" cx="505" cy="505" r="505"/>
	<circle id="mailbox-label" fill="#55415B" cx="505" cy="505" r="505"/>
	<g id="mailbox-mailbox_1_">
		<rect x="463.2002" y="672.1777" fill="#7CCACB" width="83.7969" height="125.7207"/>
		<g opacity="0.8">
			<g opacity="0.7">
				<polygon fill="#5D9898" points="546.623,713.9043 505.5088,713.9043 505.5088,693.3477 546.623,693.3477 546.623,713.9043 				
					"/>
			</g>
			<g opacity="0.7">
				<polygon fill="#5D9898" points="546.623,745.332 505.5088,745.332 505.5088,724.7744 546.623,724.7744 546.623,745.332 				"/>
			</g>
			<g opacity="0.7">
				<polygon fill="#5D9898" points="546.623,776.749 505.5088,776.749 505.5088,756.2021 546.623,756.2021 546.623,776.749 				"/>
			</g>
		</g>
		<path fill="#EFEBDE" d="M400.3457,672.1777v-225.205c0-3.2808-0.208-6.4991-0.5713-9.6866l-0.4258-2.959
			c-0.3427-2.1699-0.6543-4.3505-1.1108-6.4785l-0.8408-3.25c-0.5401-1.9726-1.0699-3.935-1.7237-5.8452
			c-0.3325-1.0278-0.727-2.0454-1.1215-3.0732c-0.7681-2.0249-1.5362-3.8726-2.3672-5.6997
			c-0.4356-0.9864-0.9239-1.9419-1.4219-2.9283c-0.9453-1.8793-1.9316-3.6752-3.001-5.4194l-1.5781-2.6372
			c-1.2041-1.8374-2.4815-3.644-3.7998-5.4092l-1.5054-2.0141c-1.6924-2.1075-3.4678-4.1324-5.3262-6.0738l-0.8305-0.9135
			c-2.0664-2.087-4.3604-4.2774-6.7798-6.2813l-24.6997-20.3603h160.6157v136.7988V357.9434h198.8648
			c41.207,0,74.7421,33.5249,74.7421,74.7226v239.5117H400.3457z"/>
		<path fill="#F36360" d="M650.125,316.4556l-39.1523-52.1822l39.1318-52.1713H493.5791v282.6401
			c0,5.6792,4.5996,10.2783,10.2788,10.2783s10.2788-4.5991,10.2788-10.2783V316.4556H650.125z"/>
		<path fill="#D5D0BB" d="M232.5347,610.8691V446.9727c0-49.1817,39.8686-89.0293,89.0498-89.0293
			c49.1714,0,89.0395,39.8476,89.0395,89.0293v225.205H232.5347v-80.5986"/>
	</g>
</g>
</svg>
