<?xml version="1.0" encoding="utf-8"?>
<!-- Generator: Adobe Illustrator 17.1.0, SVG Export Plug-In . SVG Version: 6.00 Build 0)  -->
<!DOCTYPE svg PUBLIC "-//W3C//DTD SVG 1.1//EN" "http://www.w3.org/Graphics/SVG/1.1/DTD/svg11.dtd">
<svg version="1.1" id="megaphone" xmlns="http://www.w3.org/2000/svg" xmlns:xlink="http://www.w3.org/1999/xlink" x="0px" y="0px"
	 viewBox="0 0 1010 1010" enable-background="new 0 0 1010 1010" xml:space="preserve">
<g id="megaphone-megaphone">
	<circle id="megaphone-label" fill="#FBCD64" cx="505" cy="505" r="505"/>
	<g id="megaphone-megaphone_1_">
		<polyline fill="#B4B5AA" points="755.4023,420.1553 797.8984,420.1553 797.8984,512.5898 755.4023,512.5898 		"/>
		<polyline fill="#F3EEDC" points="599.8438,572.1113 736.4033,677.8457 754.0527,677.8457 754.0527,466.3774 754.0527,254.8467 
			736.4033,254.8467 599.8438,360.6118 		"/>
		<path fill="#7CCACB" d="M366.333,553.9531V741.75c0,11.1094,8.2432,16.373,18.3247,11.7012l42.6304-19.7578
			c10.081-4.6719,18.3247-17.5879,18.3247-28.6973v-151.043"/>
		<polyline fill="#B64A48" points="264.5903,528.7861 212.1021,528.7861 212.1021,403.9062 264.5903,403.9062 		"/>
		<polyline fill="#F36360" points="599.8438,360.6118 260.5566,360.6118 260.5566,572.1113 599.8438,572.1113 		"/>
		<g>
			<g opacity="0.7">
				<polygon fill="#5D9898" points="445.6128,608.0869 403.7822,608.0869 403.7822,587.1768 445.6128,587.1768 445.6128,608.0869 
									"/>
			</g>
			<g opacity="0.7">
				<polygon fill="#5D9898" points="445.6128,639.5146 403.7822,639.5146 403.7822,618.584 445.6128,618.584 445.6128,639.5146 				
					"/>
			</g>
			<g opacity="0.7">
				<polygon fill="#5D9898" points="445.6128,702.3486 403.7822,702.3486 403.7822,681.4277 445.6128,681.4277 445.6128,702.3486 
									"/>
			</g>
			<g opacity="0.7">
				<polygon fill="#5D9898" points="445.6128,670.9316 403.7822,670.9316 403.7822,650.0107 445.6128,650.0107 445.6128,670.9316 
									"/>
			</g>
		</g>
	</g>
</g>
</svg>
