<?xml version="1.0" encoding="utf-8"?>
<!-- Generator: Adobe Illustrator 17.1.0, SVG Export Plug-In . SVG Version: 6.00 Build 0)  -->
<!DOCTYPE svg PUBLIC "-//W3C//DTD SVG 1.1//EN" "http://www.w3.org/Graphics/SVG/1.1/DTD/svg11.dtd">
<svg version="1.1" id="message-phone" xmlns="http://www.w3.org/2000/svg" xmlns:xlink="http://www.w3.org/1999/xlink" x="0px"
	 y="0px" viewBox="0 0 1010 1010" enable-background="new 0 0 1010 1010" xml:space="preserve">
<g id="message-phone-message-phone">
	<circle id="message-phone-label" fill="#7CCACB" cx="505" cy="505" r="505"/>
	<g id="message-phone-message-phone_1_">
		<g>
			<path fill="#F3EEDC" d="M348.9736,280.709v-25.3018c0-18.3144,14.8936-33.208,33.1973-33.208h245.6533
				c18.3145,0,33.2031,14.8936,33.2031,33.208v25.3018H348.9736z"/>
			<path fill="#F3EEDC" d="M382.1709,787.7959c-18.3037,0-33.1973-14.8887-33.1973-33.2031v-83.8271h312.0537v83.8271
				c0,18.3145-14.8886,33.2031-33.2031,33.2031H382.1709z"/>
			<polygon fill="#55415B" points="348.9736,670.7656 348.9736,280.709 661.0273,280.709 661.0273,339.2295 661.0273,524.498 
				661.0273,670.7656 			"/>
			<g>
				<path fill="#D5D0BB" d="M627.8242,797.8984H382.1709c-23.8794,0-43.2998-19.4257-43.2998-43.3056V255.4072
					c0-23.8745,19.4204-43.3051,43.2998-43.3051h245.6533c23.8788,0,43.3047,19.4306,43.3047,43.3051v83.8223
					c0,5.5752-4.5273,10.0967-10.1016,10.0967c-5.5654,0-10.1025-4.5215-10.1025-10.0967v-83.8223
					c0-12.7392-10.3623-23.1064-23.1006-23.1064H382.1709c-12.7339,0-23.0957,10.3672-23.0957,23.1064v499.1855
					c0,12.75,10.3618,23.1113,23.0957,23.1113h245.6533c12.7383,0,23.1006-10.3613,23.1006-23.1113V524.498
					c0-5.5644,4.5371-10.0966,10.1025-10.0966c5.5743,0,10.1016,4.5322,10.1016,10.0966v230.0948
					C671.1289,778.4727,651.7031,797.8984,627.8242,797.8984L627.8242,797.8984z"/>
			</g>
			<g>
				<polygon fill="#D5D0BB" points="661.0273,680.8779 348.9736,680.8779 348.9736,660.6738 661.0273,660.6738 661.0273,680.8779 
									"/>
			</g>
			<g>
				<polygon fill="#D5D0BB" points="661.0273,290.811 348.9736,290.811 348.9736,270.6069 661.0273,270.6069 661.0273,290.811 				
					"/>
			</g>
			<g>
				<polygon fill="#D5D0BB" points="524.5195,260.541 485.5122,260.541 485.5122,242.3667 524.5195,242.3667 524.5195,260.541 				
					"/>
			</g>
			<path fill="#D5D0BB" d="M525.2246,729.291c0,11.1611-9.0527,20.1934-20.2139,20.1934c-11.1562,0-20.1992-9.0323-20.1992-20.1934
				c0-11.1611,9.043-20.1933,20.1992-20.1933C516.1719,709.0977,525.2246,718.1299,525.2246,729.291z"/>
		</g>
		<g>
			<polygon fill="#FBCD64" points="792.5098,524.498 598.6914,524.498 526.7617,576.9082 526.7617,524.498 485.3252,524.498 
				485.3252,339.2295 792.5098,339.2295 			"/>
			<g>
				<g>
					<polygon fill="#BC9A4B" points="742.3516,417.5801 540.3516,417.5801 540.3516,397.3809 742.3516,397.3809 742.3516,417.5801 
											"/>
				</g>
				<g>
					<polygon fill="#BC9A4B" points="671.6484,466.3462 540.3516,466.3462 540.3516,446.1475 671.6484,446.1475 671.6484,466.3462 
											"/>
				</g>
			</g>
		</g>
	</g>
</g>
</svg>
