<?xml version="1.0" encoding="utf-8"?>
<!-- Generator: Adobe Illustrator 17.1.0, SVG Export Plug-In . SVG Version: 6.00 Build 0)  -->
<!DOCTYPE svg PUBLIC "-//W3C//DTD SVG 1.1//EN" "http://www.w3.org/Graphics/SVG/1.1/DTD/svg11.dtd">
<svg version="1.1" id="mobile-love-mail" xmlns="http://www.w3.org/2000/svg" xmlns:xlink="http://www.w3.org/1999/xlink" x="0px"
	 y="0px" viewBox="0 0 1010 1010" enable-background="new 0 0 1010 1010" xml:space="preserve">
<g id="mobile-love-mail-mobile-love-mail">
	<circle id="mobile-love-mail-label" fill="#F36360" cx="505" cy="505" r="505"/>
	<g id="mobile-love-mail-mobile-love-mail_1_">
		<g>
			<path fill="#F3EEDC" d="M348.9736,280.709v-25.3125c0-18.3037,14.8882-33.1924,33.2027-33.1924h245.6479
				c18.3145,0,33.2031,14.8887,33.2031,33.1924v25.3125H348.9736z"/>
			<path fill="#F3EEDC" d="M382.1763,787.7959c-18.3145,0-33.2027-14.8887-33.2027-33.1924v-83.8379h312.0537v83.8379
				c0,18.3037-14.8886,33.1924-33.2031,33.1924H382.1763z"/>
			<polygon fill="#55415B" points="348.9736,670.7656 348.9736,280.709 661.0273,280.709 661.0273,339.2344 661.0273,524.498 
				661.0273,670.7656 			"/>
			<g>
				<path fill="#D5D0BB" d="M627.8242,212.1021H382.1763c-23.8794,0-43.3052,19.4252-43.3052,43.2944v499.207
					c0,23.8692,19.4258,43.2949,43.3052,43.2949h245.6479c23.8896,0,43.3047-19.4257,43.3047-43.2949V541.2344V524.498V255.3965
					C671.1289,231.5273,651.7139,212.1021,627.8242,212.1021z M650.9248,754.6035c0,12.7393-10.3516,23.1006-23.1006,23.1006
					H382.1763c-12.7393,0-23.1011-10.3613-23.1011-23.1006v-499.207c0-12.7285,10.3618-23.1006,23.1011-23.1006h245.6479
					c12.749,0,23.1006,10.3721,23.1006,23.1006V524.498v16.7364V754.6035z"/>
			</g>
			<g>
				<polygon fill="#D5D0BB" points="661.0273,680.8672 348.9736,680.8672 348.9736,660.6738 661.0273,660.6738 661.0273,680.8672 
									"/>
			</g>
			<g>
				<polygon fill="#D5D0BB" points="661.0273,290.811 348.9736,290.811 348.9736,270.6069 661.0273,270.6069 661.0273,290.811 				
					"/>
			</g>
			<g>
				<polygon fill="#D5D0BB" points="524.5195,260.5464 485.5225,260.5464 485.5225,242.3564 524.5195,242.3564 524.5195,260.5464 
									"/>
			</g>
			<path fill="#D5D0BB" d="M525.2246,729.291c0,11.1611-9.0635,20.2041-20.2139,20.2041c-11.1611,0-20.2041-9.043-20.2041-20.2041
				c0-11.1611,9.043-20.2041,20.2041-20.2041C516.1611,709.0869,525.2246,718.1299,525.2246,729.291z"/>
		</g>
		<g>
			<g>
				<path fill="#7CCACB" d="M505.0107,559.6113l-18.7509-16.414l-53.5835,45.9414c1.9414,1.7861,4.5786,2.9178,7.4648,2.9178
					h129.7075c2.9073,0,5.5127-1.1318,7.4541-2.9178l-53.5625-45.9414L505.0107,559.6113z"/>
				<path fill="#7CCACB" d="M577.3447,486.7891c-1.9726-1.8067-4.5887-2.938-7.4961-2.938H440.1411
					c-2.8657,0-5.5024,1.1421-7.4546,2.959l72.3242,61.9721L577.3447,486.7891z"/>
				<polygon fill="#7CCACB" points="429.25,493.3408 429.25,583.2627 481.5566,538.8262 				"/>
				<polygon fill="#7CCACB" points="528.4434,538.8262 580.75,583.2627 580.75,493.3198 				"/>
			</g>
			<g>
				<path fill="#F36360" d="M509.3506,438.999c-15.2002,6.1358-21.3047,14.3589-21.3047,14.3589s-6.0845-8.2231-21.2949-14.3589
					c-17.8262-7.164-20.1416-35.373,1.4951-40.6054c8.7529-2.1285,15.4287,1.0795,19.7998,7.205
					c4.3916-6.1255,11.0469-9.3335,19.8193-7.205C529.502,403.626,527.166,431.835,509.3506,438.999z"/>
				<path fill="#F36360" d="M547.2559,383.7749c-10.8496,4.4023-15.1993,10.2681-15.1993,10.2681s-4.3505-5.8658-15.2207-10.2681
					c-12.7285-5.1079-14.3896-25.25,1.0801-28.9878c6.25-1.5259,11.0254,0.7686,14.1406,5.1397
					c3.1153-4.3711,7.8907-6.6656,14.1407-5.1397C561.6465,358.5249,559.9961,378.667,547.2559,383.7749z"/>
			</g>
		</g>
	</g>
</g>
</svg>
