<?xml version="1.0" encoding="utf-8"?>
<!-- Generator: Adobe Illustrator 17.1.0, SVG Export Plug-In . SVG Version: 6.00 Build 0)  -->
<!DOCTYPE svg PUBLIC "-//W3C//DTD SVG 1.1//EN" "http://www.w3.org/Graphics/SVG/1.1/DTD/svg11.dtd">
<svg version="1.1" id="mobile-chat-sessie" xmlns="http://www.w3.org/2000/svg" xmlns:xlink="http://www.w3.org/1999/xlink" x="0px"
	 y="0px" viewBox="0 0 1010 1010" enable-background="new 0 0 1010 1010" xml:space="preserve">
<g id="mobile-chat-sessie-mobile-chat-sessie">
	<circle id="mobile-chat-sessie-label" fill="#F36360" cx="505" cy="505" r="505"/>
	<g id="mobile-chat-sessie-mobile-chat-sessie_1_">
		<g>
			<path fill="#F3EEDC" d="M348.9736,280.709v-25.3018c0-18.3047,14.8936-33.1928,33.1973-33.1928h245.6533
				c18.3145,0,33.2031,14.8881,33.2031,33.1928v25.3018H348.9736z"/>
			<path fill="#F3EEDC" d="M382.1709,787.7959c-18.3037,0-33.1973-14.8887-33.1973-33.1924v-83.8379h312.0537v83.8379
				c0,18.3037-14.8886,33.1924-33.2031,33.1924H382.1709z"/>
			<polygon fill="#55415B" points="348.9736,670.7656 348.9736,280.709 661.0273,280.709 661.0273,339.2241 661.0273,524.498 
				661.0273,670.7656 			"/>
			<g>
				<path fill="#D5D0BB" d="M627.8242,212.1021H382.1709c-23.8848,0-43.2998,19.4252-43.2998,43.3051v499.1963
					c0,23.8692,19.415,43.2949,43.2998,43.2949h245.6533c23.8788,0,43.3047-19.4257,43.3047-43.2949V541.2344V524.498V255.4072
					C671.1289,231.5273,651.7031,212.1021,627.8242,212.1021z M650.9248,754.6035c0,12.7393-10.3623,23.1006-23.1006,23.1006
					H382.1709c-12.7441,0-23.0957-10.3613-23.0957-23.1006V255.4072c0-12.7392,10.3516-23.122,23.0957-23.122h245.6533
					c12.7383,0,23.1006,10.3828,23.1006,23.122V524.498v16.7364V754.6035z"/>
			</g>
			<g>
				<polygon fill="#D5D0BB" points="661.0273,680.8672 348.9736,680.8672 348.9736,660.6738 661.0273,660.6738 661.0273,680.8672 
									"/>
			</g>
			<g>
				<polygon fill="#D5D0BB" points="661.0273,290.811 348.9736,290.811 348.9736,270.5967 661.0273,270.5967 661.0273,290.811 				
					"/>
			</g>
			<g>
				<polygon fill="#D5D0BB" points="524.5195,260.5361 485.5122,260.5361 485.5122,242.3564 524.5195,242.3564 524.5195,260.5361 
									"/>
			</g>
			<path fill="#D5D0BB" d="M525.2246,729.291c0,11.1611-9.0742,20.2041-20.2139,20.2041c-11.1665,0-20.1992-9.043-20.1992-20.2041
				c0-11.1611,9.0327-20.2041,20.1992-20.2041C516.1504,709.0869,525.2246,718.1299,525.2246,729.291z"/>
		</g>
		<g>
			<g>
				<polygon id="mobile-chat-sessie-color_1_" fill="#F36360" points="396.208,508.3848 613.7871,508.3848 613.7871,576.7939 
					478.6855,576.7939 448.7793,609.3848 457.833,576.7939 396.208,576.7939 				"/>
				<g>
					<rect x="411.1797" y="522.8887" fill="#B64A48" width="186.8887" height="10.1025"/>
					<rect x="411.1797" y="549.208" fill="#B64A48" width="107.0371" height="10.1025"/>
				</g>
			</g>
			<g>
				<polygon id="mobile-chat-sessie-color" fill="#FBCD64" points="613.7871,360.2173 396.208,360.2173 396.208,428.627 
					531.3086,428.627 561.2207,461.2173 552.167,428.627 613.7871,428.627 				"/>
				<g>
					<rect x="411.9478" y="374.7217" fill="#BC9A4B" width="186.8676" height="10.102"/>
					<rect x="411.9478" y="401.041" fill="#BC9A4B" width="107.017" height="10.1021"/>
				</g>
			</g>
		</g>
	</g>
</g>
</svg>
