<?xml version="1.0" encoding="utf-8"?>
<!-- Generator: Adobe Illustrator 17.1.0, SVG Export Plug-In . SVG Version: 6.00 Build 0)  -->
<!DOCTYPE svg PUBLIC "-//W3C//DTD SVG 1.1//EN" "http://www.w3.org/Graphics/SVG/1.1/DTD/svg11.dtd">
<svg version="1.1" id="mobile-bubble" xmlns="http://www.w3.org/2000/svg" xmlns:xlink="http://www.w3.org/1999/xlink" x="0px"
	 y="0px" viewBox="0 0 1010 1010" enable-background="new 0 0 1010 1010" xml:space="preserve">
<g id="mobile-bubble-mobile-bubble">
	<circle id="mobile-bubble-label" fill="#55415B" cx="505" cy="505" r="505"/>
	<g id="mobile-bubble-mobile-bubble_1_">
		<g>
			<path fill="#F3EEDC" d="M348.9736,280.709v-25.3018c0-18.3095,14.8936-33.2031,33.1973-33.2031h245.6533
				c18.3145,0,33.2031,14.8936,33.2031,33.2031v25.3018H348.9736z"/>
			<path fill="#F3EEDC" d="M382.1709,787.7959c-18.3037,0-33.1973-14.8887-33.1973-33.2031v-83.8271h312.0537v83.8271
				c0,18.3145-14.8886,33.2031-33.2031,33.2031H382.1709z"/>
			<polygon fill="#F36360" points="348.9736,670.7656 348.9736,280.709 661.0273,280.709 661.0273,339.2344 661.0273,524.498 
				661.0273,670.7656 			"/>
			<g>
				<path fill="#D5D0BB" d="M627.8242,212.1021H382.1709c-23.8848,0-43.2998,19.4306-43.2998,43.3051v499.1855
					c0,23.8799,19.415,43.3056,43.2998,43.3056h245.6533c23.8896,0,43.3047-19.4257,43.3047-43.3056V541.2344V524.498V255.4072
					C671.1289,231.5327,651.7139,212.1021,627.8242,212.1021z M650.9248,754.5928c0,12.75-10.3516,23.1113-23.1006,23.1113H382.1709
					c-12.7441,0-23.0957-10.3613-23.0957-23.1113V255.4072c0-12.7392,10.3516-23.1113,23.0957-23.1113h245.6533
					c12.749,0,23.1006,10.3721,23.1006,23.1113V524.498v16.7364V754.5928z"/>
			</g>
			<g>
				<polygon fill="#D5D0BB" points="661.0273,680.8779 348.9736,680.8779 348.9736,660.6738 661.0273,660.6738 661.0273,680.8779 
									"/>
			</g>
			<g>
				<polygon fill="#D5D0BB" points="661.0273,290.811 348.9736,290.811 348.9736,270.6016 661.0273,270.6016 661.0273,290.811 				
					"/>
			</g>
			<g>
				<polygon fill="#D5D0BB" points="524.5195,260.541 485.5225,260.541 485.5225,242.3613 524.5195,242.3613 524.5195,260.541 				
					"/>
			</g>
			<path fill="#D5D0BB" d="M525.2246,729.291c0,11.1611-9.0742,20.1934-20.2139,20.1934c-11.1665,0-20.1992-9.0323-20.1992-20.1934
				c0-11.1611,9.0327-20.1933,20.1992-20.1933C516.1504,709.0977,525.2246,718.1299,525.2246,729.291z"/>
		</g>
		<g>
			<path fill="#7CCACB" d="M668.793,303.5503c-79.4258,0-143.7549,53.646-143.7549,119.8179
				c0,32.0664,15.2314,61.1523,39.8476,82.623c-12.3652,31.5371-32.289,64.3555-64.7758,87.0518
				c64.2153,0,107.0737-21.6368,131.5141-54.0928c11.8564,2.6377,24.3252,4.1738,37.169,4.1738
				c79.3633,0,143.7441-53.5888,143.7441-119.7558C812.5371,357.1963,748.1563,303.5503,668.793,303.5503z"/>
			<g>
				<path fill="#5D9898" d="M626.0176,418.063c0,10.7817-8.7217,19.5239-19.4981,19.5239c-10.7978,0-19.5605-8.7422-19.5605-19.5239
					c0-10.7822,8.7627-19.5293,19.5605-19.5293C617.2959,398.5337,626.0176,407.2808,626.0176,418.063z"/>
				<ellipse fill="#5D9898" cx="674.0771" cy="418.063" rx="19.5292" ry="19.5239"/>
				<path fill="#5D9898" d="M761.1758,418.063c0,10.7817-8.7422,19.519-19.5195,19.519c-10.7667,0-19.5391-8.7373-19.5391-19.519
					c0-10.7822,8.7724-19.5293,19.5391-19.5293C752.4336,398.5337,761.1758,407.2808,761.1758,418.063z"/>
			</g>
		</g>
	</g>
</g>
</svg>
