<?xml version="1.0" encoding="utf-8"?>
<!-- Generator: Adobe Illustrator 17.1.0, SVG Export Plug-In . SVG Version: 6.00 Build 0)  -->
<!DOCTYPE svg PUBLIC "-//W3C//DTD SVG 1.1//EN" "http://www.w3.org/Graphics/SVG/1.1/DTD/svg11.dtd">
<svg version="1.1" id="mobile-3G" xmlns="http://www.w3.org/2000/svg" xmlns:xlink="http://www.w3.org/1999/xlink" x="0px" y="0px"
	 viewBox="0 0 1010 1010" enable-background="new 0 0 1010 1010" xml:space="preserve">
<g id="mobile-3g-mobile-3g">
	<circle id="mobile-3g-label" fill="#7CCACB" cx="505" cy="505" r="505"/>
	<g id="mobile-3g-mobile-3g_1_">
		<g>
			<path fill="#F3EEDC" d="M343.5952,272.9741v-26.1689c0-18.9478,15.4077-34.3555,34.3452-34.3555h254.1192
				c18.9375,0,34.3554,15.4077,34.3554,34.3555v26.1689H343.5952z"/>
			<path fill="#F3EEDC" d="M377.9404,797.5547c-18.9375,0-34.3452-15.4072-34.3452-34.3447v-86.7344H666.415V763.21
				c0,18.9376-15.4179,34.3447-34.3554,34.3447H377.9404z"/>
			<polygon fill="#55415B" points="343.5952,676.4756 343.5952,272.9741 666.415,272.9741 666.415,333.5137 666.415,525.1729 
				666.415,676.4756 			"/>
			<g>
				<path fill="#D5D0BB" d="M632.0596,202H377.9404c-24.7099,0-44.8003,20.1006-44.8003,44.8052V763.21
					c0,24.6895,20.0904,44.79,44.8003,44.79h254.1192c24.7099,0,44.7998-20.1006,44.7998-44.79V542.4805v-17.3076V246.8052
					C676.8594,222.1006,656.7695,202,632.0596,202z M655.96,763.21c0,13.1757-10.7246,23.8896-23.9005,23.8896H377.9404
					c-13.1758,0-23.9004-10.7139-23.9004-23.8896V246.8052c0-13.1856,10.7246-23.9107,23.9004-23.9107h254.1192
					c13.1758,0,23.9005,10.7251,23.9005,23.9107v278.3677v17.3076V763.21z"/>
			</g>
			<g>
				<polygon fill="#D5D0BB" points="666.415,686.9414 343.5952,686.9414 343.5952,666.0312 666.415,666.0312 666.415,686.9414 				
					"/>
			</g>
			<g>
				<polygon fill="#D5D0BB" points="666.415,283.4189 343.5952,283.4189 343.5952,262.5244 666.415,262.5244 666.415,283.4189 				
					"/>
			</g>
			<g>
				<polygon fill="#D5D0BB" points="525.1934,252.1157 484.8374,252.1157 484.8374,233.3135 525.1934,233.3135 525.1934,252.1157 
									"/>
			</g>
			<path fill="#D5D0BB" d="M525.9209,737.0254c0,11.5459-9.376,20.9004-20.9102,20.9004c-11.5454,0-20.9003-9.3545-20.9003-20.9004
				c0-11.5449,9.3549-20.8994,20.9003-20.8994C516.5449,716.126,525.9209,725.4805,525.9209,737.0254z"/>
		</g>
		<g>
			<path fill="#F36360" d="M463.5327,404.0156h-35.5596c-6.5097,0-11.7841,5.2793-11.7841,11.7842
				c0,6.5098,5.2744,11.7891,11.7841,11.7891h23.7759v23.8379c-0.021,0-0.042-0.0157-0.0625-0.0157h-23.7134
				c-6.5097,0-11.7841,5.2744-11.7841,11.7842c0,6.5044,5.2744,11.7842,11.7841,11.7842h23.7134
				c0.0205,0,0.0415-0.0156,0.0625-0.0156v23.8637h-23.7759c-6.5097,0-11.7841,5.274-11.7841,11.7837
				c0,6.5157,5.2744,11.7891,11.7841,11.7891h35.5596c6.5098,0,11.7842-5.2734,11.7842-11.7891v-94.8115
				C475.3169,409.2949,470.0425,404.0156,463.5327,404.0156z"/>
			<path fill="#F36360" d="M582.0273,451.4111h-35.4248c-6.5097,0-11.7841,5.2744-11.7841,11.7842
				c0,6.5044,5.2744,11.7842,11.7841,11.7842h23.6407v23.8481h-47.5303v-71.2387h47.457c6.5204,0,11.7842-5.2793,11.7842-11.7891
				c0-6.5049-5.2637-11.7842-11.7842-11.7842h-59.2412c-6.5098,0-11.7842,5.2793-11.7842,11.7842v94.8115
				c0,6.5157,5.2744,11.7891,11.7842,11.7891h71.0986c6.5098,0,11.7832-5.2734,11.7832-11.7891v-47.416
				C593.8105,456.6855,588.5371,451.4111,582.0273,451.4111z"/>
		</g>
	</g>
</g>
</svg>
