<?xml version="1.0" encoding="utf-8"?>
<!-- Generator: Adobe Illustrator 17.1.0, SVG Export Plug-In . SVG Version: 6.00 Build 0)  -->
<!DOCTYPE svg PUBLIC "-//W3C//DTD SVG 1.1//EN" "http://www.w3.org/Graphics/SVG/1.1/DTD/svg11.dtd">
<svg version="1.1" id="newsletter" xmlns="http://www.w3.org/2000/svg" xmlns:xlink="http://www.w3.org/1999/xlink" x="0px" y="0px"
	 viewBox="0 0 1010 1010" enable-background="new 0 0 1010 1010" xml:space="preserve">
<g id="newsletter-newsletter">
	<circle id="newsletter-label" fill="#F36360" cx="505" cy="505" r="505"/>
	<g id="newsletter-newsletter_1_">
		<polygon fill="#C3C4BB" points="775.5654,437.5977 507.9902,303.9551 234.4297,437.5977 244.334,787.9932 765.6602,787.9932 		"/>
		<g>
			<rect x="287.0889" y="212.1021" fill="#F9F7F2" width="441.6103" height="427.059"/>
			<rect x="330.6587" y="268.437" fill="#FBCD64" width="348.7036" height="67.4649"/>
			<rect x="333.5762" y="381.8125" fill="#EAE8DD" width="348.6308" height="17.4116"/>
			<rect x="333.5762" y="436.8496" fill="#EAE8DD" width="348.6308" height="17.4014"/>
			<rect x="333.5762" y="491.8662" fill="#EAE8DD" width="348.6308" height="17.4014"/>
			<rect x="333.5762" y="546.8926" fill="#EAE8DD" width="348.6308" height="17.4433"/>
		</g>
		<g>
			<polygon fill="#DDD9C9" points="505.0205,609.8105 235.9712,796.8701 235.9712,797.8984 772.3672,797.8984 772.3672,795.79 			
				"/>
			<polygon fill="#EFEBDE" points="505.0205,615.8008 234.4297,437.5977 234.4297,797.8984 235.9712,796.8701 505.0205,619.7051 
				772.3672,795.79 775.5654,797.8984 775.5654,437.5977 			"/>
		</g>
	</g>
</g>
</svg>
