<?xml version="1.0" encoding="utf-8"?>
<!-- Generator: Adobe Illustrator 17.1.0, SVG Export Plug-In . SVG Version: 6.00 Build 0)  -->
<!DOCTYPE svg PUBLIC "-//W3C//DTD SVG 1.1//EN" "http://www.w3.org/Graphics/SVG/1.1/DTD/svg11.dtd">
<svg version="1.1" id="outgoing-call" xmlns="http://www.w3.org/2000/svg" xmlns:xlink="http://www.w3.org/1999/xlink" x="0px"
	 y="0px" viewBox="0 0 1010 1010" enable-background="new 0 0 1010 1010" xml:space="preserve">
<g id="outgoing-call-outgoing-call">
	<circle id="outgoing-call-label" fill="#EFEBDE" cx="505" cy="505" r="505"/>
	<g id="outgoing-call-outgoing-call_1_">
		<path fill="#7CCACB" d="M777.5898,670.2676c-0.9648-15.6153-8.6074-30.0889-20.9414-39.6817l-72.9052-56.7607
			c-19.1963-14.9307-48.2784-14.8369-67.4023,0.2588l-16.1964,12.8017c-12.75,10.0401-32.0605,8.8877-43.5234-2.5224
			l-130.4082-130.419c-11.7578-11.7578-12.853-30.4619-2.5381-43.5019l12.8066-16.2124
			c15.6309-19.7837,15.7398-47.4888,0.2442-67.3921l-56.7402-72.8999c-10.4288-13.3931-26.148-21.0713-43.1128-21.0713
			c-14.5821,0-28.2818,5.6689-38.5865,15.9888l-46.5752,46.5703c-13.1386,13.1391-31.6504,44.499-8.1396,106.9961
			c21.751,57.7832,73.9482,128.2636,155.144,209.4336C535.2959,748.4668,618.418,777.123,664.0791,777.123h0.0205
			c27.0674,0,42.7031-9.9365,51.04-18.2831l46.5547-46.5654C772.7617,701.207,778.5664,685.9023,777.5898,670.2676z"/>
		<path fill="#F36360" d="M557.9922,465.7856c-4.2676-4.2622-4.2676-11.1767,0-15.4389l166.8135-166.8135H620.2441
			c-6.0214,0-10.9111-4.8799-10.9111-10.9072c0-6.0215,4.8897-10.9063,10.9111-10.9063h130.8916
			c1.4229,0,2.8448,0.2852,4.1631,0.8355c2.6787,1.1162,4.7969,3.2339,5.9082,5.9077c0.5498,1.3393,0.8409,2.7412,0.8409,4.1631
			v130.9013c0,6.022-4.8799,10.9122-10.9122,10.9122c-6.0224,0-10.9121-4.8902-10.9121-10.9122V298.9609L573.4199,465.7856
			C569.1631,470.0425,562.248,470.0425,557.9922,465.7856z"/>
	</g>
</g>
</svg>
