<?xml version="1.0" encoding="utf-8"?>
<!-- Generator: Adobe Illustrator 17.1.0, SVG Export Plug-In . SVG Version: 6.00 Build 0)  -->
<!DOCTYPE svg PUBLIC "-//W3C//DTD SVG 1.1//EN" "http://www.w3.org/Graphics/SVG/1.1/DTD/svg11.dtd">
<svg version="1.1" id="phone-ringing" xmlns="http://www.w3.org/2000/svg" xmlns:xlink="http://www.w3.org/1999/xlink" x="0px"
	 y="0px" viewBox="0 0 1010 1010" enable-background="new 0 0 1010 1010" xml:space="preserve">
<g id="phone-ringing-phone-ringing">
	<circle id="phone-ringing-label" fill="#F36360" cx="505" cy="505" r="505"/>
	<g id="phone-ringing-phone-ringing_1_">
		<path fill="#FBCD64" d="M737.2021,678.4902c-0.9033-14.4531-7.9736-27.8456-19.4042-36.7441l-67.5069-52.5547
			c-17.7539-13.8193-44.7265-13.7266-62.3877,0.2383l-15.0029,11.8564c-11.794,9.3028-29.7139,8.2441-40.3037-2.3466
			L411.8491,478.1768c-10.8911-10.8809-11.8979-28.1983-2.3462-40.2735l11.8462-15.0127
			c14.4937-18.3144,14.5767-43.9697,0.2388-62.393l-52.5454-67.5064c-9.645-12.3965-24.2017-19.5088-39.9204-19.5088
			c-13.4864,0-26.1739,5.2588-35.7154,14.8057l-43.1284,43.123c-12.1582,12.1631-29.3096,41.1973-7.5376,99.0694
			c20.1314,53.5053,68.4614,118.7695,143.6402,193.917c126.4785,126.499,203.4336,153.0468,245.7207,153.0468
			c0.0097,0,0.0097,0,0.0097,0c25.0742,0,39.5371-9.2089,47.2617-16.9443l43.1172-43.1172
			C732.7383,707.1455,738.0957,692.9531,737.2021,678.4902z"/>
		<g>
			<g>
				<path fill="#7CCACB" d="M767.6016,505.2598c-5.585,0-10.1016-4.5166-10.1016-10.0972
					c0-133.6577-108.7451-242.4028-242.3984-242.4028c-5.585,0-10.1016-4.5166-10.1016-10.0972
					c0-5.5855,4.5166-10.1021,10.1016-10.1021c144.8036,0,262.6025,117.7989,262.6025,262.6021
					C777.7041,500.7432,773.1777,505.2598,767.6016,505.2598L767.6016,505.2598z"/>
			</g>
			<g>
				<path fill="#7CCACB" d="M707,505.2598c-5.5859,0-10.1016-4.5166-10.1016-10.0972c0-100.2422-81.5546-181.8013-181.7968-181.8013
					c-5.585,0-10.1016-4.5161-10.1016-10.1015c0-5.5811,4.5166-10.0972,10.1016-10.0972c111.3828,0,201.9999,90.6123,201.9999,202
					C717.1016,500.7432,712.5859,505.2598,707,505.2598L707,505.2598z"/>
			</g>
			<g>
				<path fill="#7CCACB" d="M646.3984,505.2598c-5.5761,0-10.1025-4.5166-10.1025-10.0972
					c0-66.8364-54.3623-121.1987-121.1943-121.1987c-5.585,0-10.1016-4.5215-10.1016-10.1026
					c0-5.5801,4.5166-10.1015,10.1016-10.1015c77.9726,0,141.3984,63.4306,141.3984,141.4028
					C656.5,500.7432,651.9834,505.2598,646.3984,505.2598L646.3984,505.2598z"/>
			</g>
			<g>
				<path fill="#7CCACB" d="M585.7959,505.2598c-5.5752,0-10.0918-4.5166-10.0918-10.0972
					c0-33.4155-27.1914-60.6021-60.6025-60.6021c-5.585,0-10.1016-4.5166-10.1016-10.0966c0-5.586,4.5166-10.1026,10.1016-10.1026
					c44.5517,0,80.7968,36.2451,80.7968,80.8013C595.8984,500.7432,591.3818,505.2598,585.7959,505.2598L585.7959,505.2598z"/>
			</g>
		</g>
	</g>
</g>
</svg>
