<?xml version="1.0" encoding="utf-8"?>
<!-- Generator: Adobe Illustrator 17.1.0, SVG Export Plug-In . SVG Version: 6.00 Build 0)  -->
<!DOCTYPE svg PUBLIC "-//W3C//DTD SVG 1.1//EN" "http://www.w3.org/Graphics/SVG/1.1/DTD/svg11.dtd">
<svg version="1.1" id="post-envelope" xmlns="http://www.w3.org/2000/svg" xmlns:xlink="http://www.w3.org/1999/xlink" x="0px"
	 y="0px" viewBox="0 0 1010 1010" enable-background="new 0 0 1010 1010" xml:space="preserve">
<g id="post-envelope-post-envelope">
	<circle id="post-envelope-label" fill="#FBCD64" cx="505" cy="505" r="505"/>
	<g id="post-envelope-post-envelope_1_">
		<polygon fill="#7CCACB" points="222.5674,285.1523 212.1021,286.1494 212.1021,724.8477 797.8984,724.8477 797.8984,285.1523 		
			"/>
		<g>
			<g>
				<g>
					<polygon fill="#5D9898" points="602.377,576.3379 491.4824,576.3379 491.4824,555.4062 602.377,555.4062 602.377,576.3379 
											"/>
				</g>
				<g>
					<polygon fill="#5D9898" points="472.5449,576.3379 407.6235,576.3379 407.6235,555.4062 472.5449,555.4062 472.5449,576.3379 
											"/>
				</g>
			</g>
			<g>
				<polygon fill="#5D9898" points="602.377,530.084 407.6235,530.084 407.6235,509.1523 602.377,509.1523 602.377,530.084 				"/>
			</g>
			<g>
				<polygon fill="#5D9898" points="602.377,493.5479 407.6235,493.5479 407.6235,472.6279 602.377,472.6279 602.377,493.5479 				
					"/>
			</g>
		</g>
		<rect x="642.8574" y="338.7153" fill="#EFEBDE" width="97.3867" height="97.3872"/>
		<rect x="663.0615" y="358.9194" fill="#D5D0BB" width="56.9785" height="56.9888"/>
	</g>
</g>
</svg>
