<?xml version="1.0" encoding="utf-8"?>
<!-- Generator: Adobe Illustrator 17.1.0, SVG Export Plug-In . SVG Version: 6.00 Build 0)  -->
<!DOCTYPE svg PUBLIC "-//W3C//DTD SVG 1.1//EN" "http://www.w3.org/Graphics/SVG/1.1/DTD/svg11.dtd">
<svg version="1.1" id="smiley" xmlns="http://www.w3.org/2000/svg" xmlns:xlink="http://www.w3.org/1999/xlink" x="0px" y="0px"
	 viewBox="0 0 1010 1010" enable-background="new 0 0 1010 1010" xml:space="preserve">
<g id="smiley-smiley">
	<circle id="smiley-label" fill="#F36360" cx="505" cy="505" r="505"/>
	<g id="smiley-smiley_1_">
		<path fill="#FBCD64" d="M505,222.1992c-155.9385,0-282.8008,126.8623-282.8008,282.8008
			c0,155.9229,126.8623,282.7959,282.8008,282.7959c155.9229,0,282.7959-126.873,282.7959-282.7959
			C787.7959,349.0615,660.9229,222.1992,505,222.1992z"/>
		<g>
			<path fill="#BC9A4B" d="M507.9023,669.9971c-57.6591,0-110.6406-33.8877-134.9873-86.3193
				c-2.3984-5.1494-0.1552-11.2755,4.9888-13.6631c5.1499-2.3876,11.2598-0.166,13.6528,5.004
				c21.0142,45.1943,66.6602,74.4111,116.3457,74.4111c49.7051,0,95.377-29.2168,116.3497-74.4111
				c2.3984-5.1495,8.5244-7.4229,13.664-5.004c5.1494,2.3877,7.3916,8.5137,5.0038,13.6631
				C618.584,636.1094,565.5713,669.9971,507.9023,669.9971L507.9023,669.9971z"/>
		</g>
		<g>
			<g>
				<path fill="#BC9A4B" d="M458.7256,443.2974c0,19.8823-16.1133,35.9956-35.9956,35.9956
					c-19.8823,0-35.9907-16.1133-35.9907-35.9956c0-19.8775,16.1084-35.9956,35.9907-35.9956
					C442.6123,407.3018,458.7256,423.4199,458.7256,443.2974"/>
			</g>
			<g>
				<path fill="#BC9A4B" d="M623.2559,443.2974c0,19.8823-16.1036,35.9956-35.9854,35.9956
					c-19.8828,0-35.9961-16.1133-35.9961-35.9956c0-19.8775,16.1133-35.9956,35.9961-35.9956
					C607.1523,407.3018,623.2559,423.4199,623.2559,443.2974"/>
			</g>
		</g>
	</g>
</g>
</svg>
