<?xml version="1.0" encoding="utf-8"?>
<!-- Generator: Adobe Illustrator 17.1.0, SVG Export Plug-In . SVG Version: 6.00 Build 0)  -->
<!DOCTYPE svg PUBLIC "-//W3C//DTD SVG 1.1//EN" "http://www.w3.org/Graphics/SVG/1.1/DTD/svg11.dtd">
<svg version="1.1" id="speech-bubbles" xmlns="http://www.w3.org/2000/svg" xmlns:xlink="http://www.w3.org/1999/xlink" x="0px"
	 y="0px" viewBox="0 0 1010 1010" enable-background="new 0 0 1010 1010" xml:space="preserve">
<g id="speech-bubbles-speech-bubbles">
	<circle id="speech-bubbles-label" fill="#FBCD64" cx="505" cy="505" r="505"/>
	<g id="speech-bubbles-speech-bubbles_1_">
		<g>
			<polygon fill="#F36360" points="292.5654,246.4678 292.5654,597.1123 313.1436,597.1123 313.1436,594.1328 324.0039,590.9873 
				324.0039,601.2861 787.7959,601.2861 787.7959,246.4678 			"/>
			<path fill="#7CCACB" d="M707.1455,316.8501H232.4829c-5.6792,0-10.2788,4.5942-10.2788,10.2788v334.251
				c0,5.6894,4.5996,10.2783,10.2788,10.2783h104.063v81.585c0,4.0283,2.3462,7.7041,6.0112,9.3545
				c1.3706,0.6328,2.8238,0.9453,4.2774,0.9453c2.4297,0,4.8276-0.8623,6.7485-2.5439l102.6509-89.3408h250.9116
				c5.6787,0,10.2891-4.5889,10.2891-10.2783v-334.251C717.4346,321.4443,712.8242,316.8501,707.1455,316.8501z"/>
		</g>
		<g>
			<g>
				<polygon fill="#5D9898" points="624.0654,561.4697 448.3955,561.4697 448.3955,540.9023 624.0654,540.9023 624.0654,561.4697 
									"/>
			</g>
			<g>
				<polygon fill="#5D9898" points="418.4004,561.4697 315.5527,561.4697 315.5527,540.9023 418.4004,540.9023 418.4004,561.4697 
									"/>
			</g>
			<g>
				<polygon fill="#5D9898" points="624.0654,501.4805 315.5527,501.4805 315.5527,480.9131 624.0654,480.9131 624.0654,501.4805 
									"/>
			</g>
			<g>
				<polygon fill="#5D9898" points="624.0654,432.915 315.5527,432.915 315.5527,412.3423 624.0654,412.3423 624.0654,432.915 				
					"/>
			</g>
		</g>
	</g>
</g>
</svg>
