<?xml version="1.0" encoding="utf-8"?>
<!-- Generator: Adobe Illustrator 17.1.0, SVG Export Plug-In . SVG Version: 6.00 Build 0)  -->
<!DOCTYPE svg PUBLIC "-//W3C//DTD SVG 1.1//EN" "http://www.w3.org/Graphics/SVG/1.1/DTD/svg11.dtd">
<svg version="1.1" id="sync-cloud" xmlns="http://www.w3.org/2000/svg" xmlns:xlink="http://www.w3.org/1999/xlink" x="0px" y="0px"
	 viewBox="0 0 1010 1010" enable-background="new 0 0 1010 1010" xml:space="preserve">
<g id="sync-cloud-sync-cloud">
	<circle id="sync-cloud-label" fill="#EFEBDE" cx="505" cy="505" r="505"/>
	<g id="sync-cloud-sync-cloud_1_">
		<path fill="#7CCACB" d="M808,543.0615c0-49.6484-38.6641-90.3369-87.4404-93.789
			c-1.3915-106.2481-88.1055-192.2823-194.6494-192.2823c-70.9585,0-136.0718,38.4722-170.4375,100.4756
			c-4.397-0.4204-8.8252-0.706-13.274-0.706C264.8862,356.7598,202,419.6465,202,496.9482c0,0.3116,0.0469,0.628,0.0469,0.9449
			S202,498.5059,202,498.8223c0,23.3193,5.9595,44.9043,16.835,63.8623c24.0195,43.0038,72.1787,73.0088,134.3642,80.2245
			c0.4048,0.0517,0.8047,0.0732,1.209,0.0732h297.2324h2.2432h59.9892c19.5508,0,38.1036-7.1543,53.5528-18.9795
			C791.4199,607.1426,808,578.1338,808,546.5713c0-0.5918-0.083-1.1729-0.1035-1.7647C807.917,544.2246,808,543.6533,808,543.0615z"
			/>
		<g>
			<path fill="#F36360" d="M635.6104,622.4141c0,72.1064-58.4737,130.5898-130.6104,130.5898
				c-72.1421,0-130.6055-58.4834-130.6055-130.5898c0-72.1465,58.4634-130.6104,130.6055-130.6104
				C577.1367,491.8037,635.6104,550.2676,635.6104,622.4141"/>
			<g>
				<path fill="#EFEBDE" d="M591.7969,627.0557c-4.9209-1.0176-9.5518,2.201-10.5069,7.0594
					c-7.3505,37.3145-39.4423,64.4121-76.29,64.4121c-30.0156,0-56.854-17.9609-69.7539-44.7793h47.3643v-17.9091H428.876h-8.9492
					h-8.9654v71.6385h17.9146v-29.9218c17.6919,23.7754,45.5376,38.8719,76.124,38.8719c45.3818,0,84.8652-33.162,93.8574-78.8652
					C599.833,632.7031,596.6563,627.9902,591.7969,627.0557"/>
				<path fill="#EFEBDE" d="M581.124,537.3105v29.9219c-17.7021-23.7861-45.5479-38.872-76.124-38.872
					c-45.3916,0-84.876,33.1611-93.8623,78.8642c-0.96,4.8594,2.1963,9.5733,7.0498,10.5078
					c4.916,1.0176,9.5728-2.2012,10.5176-7.0498c7.3506-37.3252,39.4326-64.4131,76.2949-64.4131
					c30.0049,0,56.833,17.9512,69.749,44.7793h-47.3643v17.9102h53.7393h8.9492h8.9707v-71.6485H581.124z"/>
			</g>
		</g>
	</g>
</g>
</svg>
