<?xml version="1.0" encoding="utf-8"?>
<!-- Generator: Adobe Illustrator 17.1.0, SVG Export Plug-In . SVG Version: 6.00 Build 0)  -->
<!DOCTYPE svg PUBLIC "-//W3C//DTD SVG 1.1//EN" "http://www.w3.org/Graphics/SVG/1.1/DTD/svg11.dtd">
<svg version="1.1" id="tablet-4G" xmlns="http://www.w3.org/2000/svg" xmlns:xlink="http://www.w3.org/1999/xlink" x="0px" y="0px"
	 viewBox="0 0 1010 1010" enable-background="new 0 0 1010 1010" xml:space="preserve">
<g id="tablet-4g-tablet-4g">
	<circle id="tablet-4g-label" fill="#F36360" cx="505" cy="505" r="505"/>
	<g id="tablet-4g-tablet-4g_1_">
		<path fill="#EFEBDE" d="M700.0234,787.7959H309.9771c-10.7876,0-19.5083-8.7217-19.5083-19.498v-526.585
			c0-10.7774,8.7207-19.5088,19.5083-19.5088h390.0463c10.7871,0,19.5079,8.7314,19.5079,19.5088v526.585
			C719.5313,779.0742,710.8105,787.7959,700.0234,787.7959z"/>
		<rect x="289.1084" y="300.4771" fill="#55415B" width="431.7832" height="373.6938"/>
		<path fill="#D5D0BB" d="M700.0234,797.8984H309.9771c-16.3316,0-29.6109-13.2793-29.6109-29.6005v-526.585
			c0-16.3267,13.2793-29.6108,29.6109-29.6108h390.0463c16.3311,0,29.6104,13.2841,29.6104,29.6108v526.585
			C729.6338,784.6191,716.3545,797.8984,700.0234,797.8984L700.0234,797.8984z M309.9771,232.3062
			c-5.191,0-9.4166,4.2202-9.4166,9.4067v526.585c0,5.1806,4.2256,9.4062,9.4166,9.4062h390.0463
			c5.1914,0,9.4161-4.2256,9.4161-9.4062v-526.585c0-5.1865-4.2247-9.4067-9.4161-9.4067H309.9771L309.9771,232.3062z"/>
		<g>
			<polygon fill="#D5D0BB" points="719.5313,680.8779 290.4688,680.8779 290.4688,660.6836 719.5313,660.6836 719.5313,680.8779 			
				"/>
		</g>
		<g>
			<path fill="#D5D0BB" d="M719.5313,310.3247H290.4688c-5.5757,0-10.1026-4.5215-10.1026-10.102
				c0-5.5752,4.5269-10.0967,10.1026-10.0967h429.0625c5.5859,0,10.1025,4.5215,10.1025,10.0967
				C729.6338,305.8032,725.1172,310.3247,719.5313,310.3247L719.5313,310.3247z"/>
		</g>
		<g>
			<path fill="#D5D0BB" d="M524.5088,271.3027h-39.0176c-5.5854,0-10.1016-4.5215-10.1016-10.0971
				c0-5.5806,4.5162-10.1021,10.1016-10.1021h39.0176c5.585,0,10.1016,4.5215,10.1016,10.1021
				C534.6104,266.7812,530.0938,271.3027,524.5088,271.3027L524.5088,271.3027z"/>
		</g>
		<path fill="#D5D0BB" d="M524.5088,729.291c0,10.7666-8.7422,19.5088-19.5088,19.5088s-19.5088-8.7422-19.5088-19.5088
			s8.7422-19.5088,19.5088-19.5088S524.5088,718.5244,524.5088,729.291z"/>
		<g>
			<g>
				<path fill="#7CCACB" d="M593.1152,535.877h-77.2754c-7.1123,0-12.875-5.7725-12.875-12.8848V419.9521
					c0-7.1113,5.7627-12.8789,12.875-12.8789h64.4014c7.1123,0,12.874,5.7676,12.874,12.8789
					c0,7.1124-5.7617,12.8848-12.874,12.8848h-51.5176v77.2764h51.5176v-25.7637h-29.7666c-7.1221,0-12.8848-5.7627-12.8848-12.8745
					c0-7.1172,5.7627-12.8843,12.8848-12.8843h42.6406c7.1231,0,12.8848,5.7671,12.8848,12.8843v51.5171
					C606,530.1045,600.2383,535.877,593.1152,535.877L593.1152,535.877z"/>
			</g>
			<g>
				<path fill="#7CCACB" d="M464.3218,542.335c-7.1118,0-12.874-5.752-12.874-12.8741v-38.6435
					c0-7.1118,5.7622-12.8789,12.874-12.8789c7.1118,0,12.8843,5.7671,12.8843,12.8789v38.6435
					C477.2061,536.583,471.4336,542.335,464.3218,542.335L464.3218,542.335z"/>
			</g>
			<g>
				<path fill="#7CCACB" d="M477.2061,503.6973h-60.3213c-4.7969,0-9.209-2.669-11.4209-6.9253
					c-2.2217-4.2515-1.8999-9.3911,0.8618-13.3257l49.4722-70.8604c4.0698-5.8447,12.0957-7.2622,17.9306-3.1923
					c5.8447,4.0698,7.2676,12.1005,3.1875,17.9355l-35.3315,50.6094h35.6216c7.1123,0,12.8847,5.7671,12.8847,12.8789
					C490.0908,497.9297,484.3184,503.6973,477.2061,503.6973L477.2061,503.6973z"/>
			</g>
		</g>
	</g>
</g>
</svg>
