<?xml version="1.0" encoding="utf-8"?>
<!-- Generator: Adobe Illustrator 17.1.0, SVG Export Plug-In . SVG Version: 6.00 Build 0)  -->
<!DOCTYPE svg PUBLIC "-//W3C//DTD SVG 1.1//EN" "http://www.w3.org/Graphics/SVG/1.1/DTD/svg11.dtd">
<svg version="1.1" id="thumb-up" xmlns="http://www.w3.org/2000/svg" xmlns:xlink="http://www.w3.org/1999/xlink" x="0px" y="0px"
	 viewBox="0 0 1010 1010" enable-background="new 0 0 1010 1010" xml:space="preserve">
<g id="thumb-up-thumb-up">
	<circle id="thumb-up-label" fill="#F36360" cx="505" cy="505" r="505"/>
	<g id="thumb-up-thumb-up_1_">
		<path fill="#FBCD64" d="M377.4209,685.9131h32.4141c13.9799,0,27.4199,5.4092,37.4755,15.1064
			c6.6758,6.4688,15.7237,10.2998,27.1495,10.2998c73.0459,0,200.2197,0,208.2666,0c56.7812,0,75.666-51.7666,67.8593-79.4677
			c33.0782-11.0977,37.75-56.3555,25.4366-77.8985c28.2197-18.8857,25.6339-66.375,0-77.0996
			c15.8847,0,21.8759-5.9287,21.8759-29.0605c0-37.4493-21.9589-41.6646-54.1445-41.6646H606.125
			c42.2148-152.6006-53.4492-182.3667-78.8857-140.6089c0,17.0274,0,31.8013,0,60.5191c0,6.5825,1.287,13.1753-0.8721,19.332
			c-15.6465,44.7378-45.7241,78.1792-77.6397,103.3149c-2.2793,1.7862-3.374,3.7588-5.124,5.8663
			c-11.3061,13.6113-49.6123,24.6894-67.2988,24.6894"/>
		<g>
			<path opacity="0.8" fill="#BC9A4B" d="M751.1875,633.7939h-76.3008c-2.751,0-4.9619-2.2324-4.9619-4.9736
				c0-2.7402,2.2109-4.9629,4.9619-4.9629h76.3008c2.7412,0,4.9629,2.2227,4.9629,4.9629
				C756.1504,631.5615,753.9287,633.7939,751.1875,633.7939L751.1875,633.7939z"/>
		</g>
		<g>
			<path opacity="0.8" fill="#BC9A4B" d="M776.6143,557.4824H674.8867c-2.751,0-4.9619-2.2207-4.9619-4.9619
				c0-2.7519,2.2109-4.9736,4.9619-4.9736h101.7275c2.7412,0,4.9727,2.2217,4.9727,4.9736
				C781.5869,555.2617,779.3555,557.4824,776.6143,557.4824L776.6143,557.4824z"/>
		</g>
		<g>
			<path opacity="0.8" fill="#BC9A4B" d="M776.6143,481.1934H674.8867c-2.751,0-4.9619-2.2325-4.9619-4.9737
				c0-2.7407,2.2109-4.9726,4.9619-4.9726h101.7275c2.7412,0,4.9727,2.2319,4.9727,4.9726
				C781.5869,478.9609,779.3555,481.1934,776.6143,481.1934L776.6143,481.1934z"/>
		</g>
		<path fill="#7CCACB" d="M374.6279,447.0664H222.0278c-5.4873,0-9.9257,4.4331-9.9257,9.915v254.3379
			c0,5.4815,4.4384,9.9356,9.9257,9.9356h152.6001c5.4873,0,9.9258-4.4541,9.9258-9.9356V456.9814
			C384.5537,451.4995,380.1152,447.0664,374.6279,447.0664z"/>
		<g>
			<path fill="#5D9898" d="M283.4346,661.8672c0,8.2441-6.6709,14.8887-14.8936,14.8887c-8.2226,0-14.8935-6.6446-14.8935-14.8887
				c0-8.2227,6.6709-14.8985,14.8935-14.8985C276.7637,646.9687,283.4346,653.6445,283.4346,661.8672z"/>
			<path fill="#5D9898" d="M343.0034,661.8672c0,8.2441-6.6655,14.8887-14.8935,14.8887c-8.2173,0-14.8936-6.6446-14.8936-14.8887
				c0-8.2227,6.6763-14.8985,14.8936-14.8985C336.3379,646.9687,343.0034,653.6445,343.0034,661.8672z"/>
		</g>
	</g>
</g>
</svg>
