<?xml version="1.0" encoding="utf-8"?>
<!-- Generator: Adobe Illustrator 17.1.0, SVG Export Plug-In . SVG Version: 6.00 Build 0)  -->
<!DOCTYPE svg PUBLIC "-//W3C//DTD SVG 1.1//EN" "http://www.w3.org/Graphics/SVG/1.1/DTD/svg11.dtd">
<svg version="1.1" id="thumb-down" xmlns="http://www.w3.org/2000/svg" xmlns:xlink="http://www.w3.org/1999/xlink" x="0px" y="0px"
	 viewBox="0 0 1010 1010" enable-background="new 0 0 1010 1010" xml:space="preserve">
<g id="thumb-down-thumb-down">
	<circle id="thumb-down-label" fill="#55415B" cx="505" cy="505" r="505"/>
	<g id="thumb-down-thumb-down_1_">
		<path fill="#FBCD64" d="M375.2197,320.6191h32.9746c14.2188,0,27.8926-5.5029,38.1192-15.3662
			c6.7954-6.5722,15.999-10.4756,27.6172-10.4756c74.3115,0,203.6767,0,211.8681,0c57.7471,0,76.9551,52.649,69.0225,80.837
			c33.6494,11.2861,38.4043,57.3212,25.873,79.2387c28.7071,19.2178,26.0811,67.5161,0,78.439
			c16.1758,0,22.2598,6.0215,22.2598,29.5586c0,38.0928-22.333,42.3701-55.0791,42.3701H607.8691
			c42.9512,155.2383-54.373,185.5234-80.2353,143.0391c0-17.3077,0-32.3417,0-61.5684c0-6.6855,1.2871-13.4033-0.8936-19.6641
			c-15.9209-45.5156-46.5175-79.5185-78.9887-105.0898c-2.315-1.8174-3.4312-3.8213-5.2066-5.96
			c-11.499-13.8505-50.4687-25.1152-68.4619-25.1152"/>
		<g>
			<path opacity="0.8" fill="#BC9A4B" d="M755.4238,373.6416h-77.6084c-2.7929,0-5.0566,2.2529-5.0566,5.0459
				s2.2637,5.0566,5.0566,5.0566h77.6084c2.8028,0,5.0557-2.2636,5.0557-5.0566S758.2266,373.6416,755.4238,373.6416
				L755.4238,373.6416z"/>
		</g>
		<g>
			<path opacity="0.8" fill="#BC9A4B" d="M781.2969,451.2607H677.8154c-2.7929,0-5.0566,2.2632-5.0566,5.0562
				c0,2.7925,2.2637,5.0459,5.0566,5.0459h103.4815c2.7929,0,5.0556-2.2534,5.0556-5.0459
				C786.3525,453.5239,784.0898,451.2607,781.2969,451.2607L781.2969,451.2607z"/>
		</g>
		<g>
			<path opacity="0.8" fill="#BC9A4B" d="M781.2969,528.8789H677.8154c-2.7929,0-5.0566,2.2637-5.0566,5.0469
				c0,2.7929,2.2637,5.0556,5.0566,5.0556h103.4815c2.7929,0,5.0556-2.2627,5.0556-5.0556
				C786.3525,531.1426,784.0898,528.8789,781.2969,528.8789L781.2969,528.8789z"/>
		</g>
		<path fill="#F36360" d="M372.3804,563.5879H217.1479c-5.5805,0-10.0971-4.5166-10.0971-10.1016v-258.709
			c0-5.5859,4.5166-10.1025,10.0971-10.1025h155.2325c5.5805,0,10.0971,4.5166,10.0971,10.1025v258.709
			C382.4775,559.0713,377.9609,563.5879,372.3804,563.5879z"/>
		<g>
			<path fill="#B64A48" d="M279.6138,345.0801c0-8.3892-6.7847-15.1485-15.148-15.1485s-15.1533,6.7593-15.1533,15.1485
				c0,8.3574,6.79,15.1474,15.1533,15.1474S279.6138,353.4375,279.6138,345.0801z"/>
			<path fill="#B64A48" d="M340.2158,345.0801c0-8.3892-6.7851-15.1485-15.1533-15.1485c-8.3628,0-15.1475,6.7593-15.1475,15.1485
				c0,8.3574,6.7847,15.1474,15.1475,15.1474C333.4307,360.2275,340.2158,353.4375,340.2158,345.0801z"/>
		</g>
	</g>
</g>
</svg>
