<?xml version="1.0" encoding="utf-8"?>
<!-- Generator: Adobe Illustrator 17.1.0, SVG Export Plug-In . SVG Version: 6.00 Build 0)  -->
<!DOCTYPE svg PUBLIC "-//W3C//DTD SVG 1.1//EN" "http://www.w3.org/Graphics/SVG/1.1/DTD/svg11.dtd">
<svg version="1.1" id="webcam" xmlns="http://www.w3.org/2000/svg" xmlns:xlink="http://www.w3.org/1999/xlink" x="0px" y="0px"
	 viewBox="0 0 1010 1010" enable-background="new 0 0 1010 1010" xml:space="preserve">
<g id="webcam-webcam">
	<circle id="webcam-label" fill="#F36360" cx="505" cy="505" r="505"/>
	<g id="webcam-webcam_1_">
		<g>
			<path fill="#EFEBDE" d="M638.123,761.6631l0.0215,16.498c0.0821,11.794-10.1132,19.7373-28.6562,19.7373H402.541
				c-18.3764,0-28.6445-7.8701-28.8525-19.6132v-16.0196l100.0136-127.7138c16.7784-22.4473,44.4629-22.6026,61.5206-0.3428
				L638.123,761.6631z"/>
			<path opacity="0.5" fill="#D5D0BB" d="M629.5156,741.3867c17.0176,22.2695,8.0371,40.5117-20.0273,40.5117H402.541
				c-28.0527,0-37.2568-18.3769-20.458-40.8437l91.6191-122.5127c16.7784-22.4678,44.4629-22.6133,61.5206-0.3525L629.5156,741.3867
				z"/>
			<path opacity="0.62" fill="#F7F5EF" d="M374.0938,765.8887c2.5644,5.8974,14.6962,12.2304,28.4472,12.252l0,0h206.9473
				c15.293-0.0938,26.8701-7.0089,28.5312-13.8711l-0.0625,5.9805c-2.9482,11.5654-11.7529,15.4902-28.4687,15.3867l0,0H402.541
				c-15.1684,0.0205-24.4814-5.1914-28.8525-14.9306L374.0938,765.8887z"/>
			<path fill="#EFEBDE" d="M745.6748,627.6885c0,36.2871-29.4551,65.7412-65.7725,65.7412H330.0928
				c-36.3125,0-65.7671-29.4541-65.7671-65.7412V277.8589c0-36.3071,29.4546-65.7568,65.7671-65.7568h349.8095
				c36.3174,0,65.7725,29.4497,65.7725,65.7568V627.6885z"/>
			<path fill="#EFEBDE" d="M734.7002,619.7256c0,34.6455-28.0947,62.751-62.751,62.751H338.082
				c-34.667,0-62.7871-28.1055-62.7871-62.751V285.8379c0-34.667,28.1201-62.7876,62.7871-62.7876h333.8672
				c34.6562,0,62.751,28.1206,62.751,62.7876V619.7256z"/>
			<path fill="#F36360" d="M704.8203,273.7266c0,12.7812-10.3623,23.1582-23.1533,23.1582s-23.1836-10.377-23.1836-23.1582
				c0-12.7959,10.3926-23.1578,23.1836-23.1578S704.8203,260.9307,704.8203,273.7266z"/>
		</g>
		<g>
			<path opacity="0.8" fill="#D5D0BB" d="M685.1035,452.7559c0,99.4628-80.6406,180.124-180.0928,180.124
				c-99.4741,0-180.1142-80.6612-180.1142-180.124c0-99.4327,80.6401-180.0777,180.1142-180.0777
				C604.4629,272.6782,685.1035,353.3232,685.1035,452.7559z"/>
			<path opacity="0.9" fill="#5D9898" d="M636.8359,452.7559c0,72.8222-59.0136,131.8359-131.8252,131.8359
				c-72.812,0-131.8515-59.0137-131.8515-131.8359c0-72.8018,59.0395-131.8252,131.8515-131.8252
				C577.8223,320.9307,636.8359,379.9541,636.8359,452.7559z"/>
			<path fill="#7CCACB" d="M606,452.7559c0,55.7949-45.2256,101.0205-100.9893,101.0205
				C449.2051,553.7764,404,508.5508,404,452.7559c0-55.7696,45.2051-101,101.0107-101C560.7744,351.7559,606,396.9863,606,452.7559z
				"/>
			<path fill="#B0DFE0" d="M502.4873,409.6426c0,13.9438-11.3164,25.25-25.2446,25.25c-13.9644,0-25.2554-11.3062-25.2554-25.25
				c0-13.9483,11.291-25.25,25.2554-25.25C491.1709,384.3926,502.4873,395.6943,502.4873,409.6426z"/>
		</g>
	</g>
</g>
</svg>
