<?xml version="1.0" encoding="utf-8"?>
<!-- Generator: Adobe Illustrator 17.1.0, SVG Export Plug-In . SVG Version: 6.00 Build 0)  -->
<!DOCTYPE svg PUBLIC "-//W3C//DTD SVG 1.1//EN" "http://www.w3.org/Graphics/SVG/1.1/DTD/svg11.dtd">
<svg version="1.1" id="wifi-screen" xmlns="http://www.w3.org/2000/svg" xmlns:xlink="http://www.w3.org/1999/xlink" x="0px"
	 y="0px" viewBox="0 0 1010 1010" enable-background="new 0 0 1010 1010" xml:space="preserve">
<g id="wifi-screen-wifi-screen">
	<circle id="wifi-screen-label" fill="#7CCACB" cx="505" cy="505" r="505"/>
	<g id="wifi-screen-wifi-screen_1_">
		<g>
			<polygon fill="#EFEBDE" points="572.5791,628.9238 437.4004,628.9238 437.4209,760.7598 572.5791,760.7598 			"/>
			<polygon opacity="0.3" fill="#B4B5AA" points="572.5791,628.9238 437.4004,628.9238 437.4209,695.1016 572.5791,745.6016 			"/>
			<rect x="414.1021" y="752.8379" fill="#D5D0BB" width="181.7963" height="11.2754"/>
			<g>
				<path fill="#55415B" d="M775.3682,245.8862H234.6318c-12.3964,0-22.5297,10.1333-22.5297,22.5298v315.4492h585.7963V268.416
					C797.8984,256.0195,787.7646,245.8862,775.3682,245.8862z"/>
				<path fill="#EFEBDE" d="M212.1021,583.8652v67.5889c0,12.3857,10.1333,22.5088,22.5297,22.5088h540.7363
					c12.3964,0,22.5302-10.1231,22.5302-22.5088v-67.5889H212.1021z"/>
			</g>
			<path fill="#D5D0BB" d="M505,617.6484c-6.2295,0-11.2646,5.0255-11.2646,11.2755c0,6.2305,5.0351,11.2754,11.2646,11.2754
				c6.209,0,11.2646-5.0449,11.2646-11.2754C516.2646,622.6738,511.209,617.6484,505,617.6484z"/>
			<polygon fill="#F36360" points="777.7041,268.416 777.7041,561.335 232.2959,561.335 232.2959,268.416 777.7041,268.416 			"/>
		</g>
		<g>
			<path fill="#B64A48" d="M654.8809,368.1182C614.918,328.146,561.6777,306.1357,505,306.1357s-109.9185,22.0103-149.8804,61.9825
				c-2.1489,2.1596-2.1489,5.6484,0,7.7973c2.149,2.1597,5.6377,2.1597,7.7974,0c37.8852-37.8852,88.3545-58.7436,142.083-58.7436
				c53.7393,0,104.1875,20.8584,142.083,58.7436c1.0596,1.0904,2.4815,1.6197,3.8936,1.6197c1.4121,0,2.8242-0.5293,3.9044-1.6197
				C657.04,373.7666,657.04,370.2778,654.8809,368.1182z"/>
			<path fill="#B64A48" d="M387.5439,400.5527c-2.1494,2.1597-2.1494,5.6485,0,7.8077c1.0899,1.0693,2.4917,1.6201,3.9141,1.6201
				c1.4121,0,2.8242-0.5508,3.9038-1.6201c60.4468-60.4668,158.8198-60.4668,219.2661,0c2.1592,2.1596,5.6582,2.1596,7.8076,0
				c2.17-2.1592,2.17-5.648,0-7.8077C557.6904,335.8086,452.3198,335.7979,387.5439,400.5527z"/>
			<path fill="#B64A48" d="M505,397.8433c-32.1436,0-62.3252,12.4795-85.001,35.1547c-2.1592,2.1592-2.1592,5.6377,0,7.7969
				c2.1494,2.1597,5.6377,2.1597,7.7871,0c20.5987-20.5776,48.0186-31.9258,77.2139-31.9258
				c29.2061,0,56.6152,11.3482,77.2031,31.9258c1.0703,1.0801,2.4824,1.6201,3.8936,1.6201c1.4228,0,2.8349-0.54,3.9043-1.6201
				c2.1592-2.1592,2.1592-5.6377,0-7.7969C567.3359,410.3228,537.1445,397.8433,505,397.8433z"/>
			<path fill="#B64A48" d="M505,449.7451c-19.9341,0-36.1514,16.2276-36.1514,36.1616c0,19.9341,16.2173,36.1617,36.1514,36.1617
				c19.9346,0,36.1514-16.2276,36.1514-36.1617C541.1514,465.9727,524.9346,449.7451,505,449.7451z"/>
		</g>
	</g>
</g>
</svg>
