<?xml version="1.0" encoding="utf-8"?>
<!-- Generator: Adobe Illustrator 17.1.0, SVG Export Plug-In . SVG Version: 6.00 Build 0)  -->
<!DOCTYPE svg PUBLIC "-//W3C//DTD SVG 1.1//EN" "http://www.w3.org/Graphics/SVG/1.1/DTD/svg11.dtd">
<svg version="1.1" id="wireless-tower" xmlns="http://www.w3.org/2000/svg" xmlns:xlink="http://www.w3.org/1999/xlink" x="0px"
	 y="0px" viewBox="0 0 1010 1010" enable-background="new 0 0 1010 1010" xml:space="preserve">
<g id="wireless-tower-wireless-tower">
	<circle id="wireless-tower-label" fill="#EFEBDE" cx="505" cy="505" r="505"/>
	<g id="wireless-tower-wireless-tower_1_">
		<g>
			<path fill="#7CCACB" d="M247.4541,428.0039c0-68.7939,26.7764-133.4658,75.3975-182.0967c3.955-3.9453,3.955-10.3305,0-14.2759
				c-3.9356-3.9453-10.3203-3.9453-14.2657,0C256.1338,284.0728,227.25,353.8115,227.25,428.0039
				c0,74.1929,28.8838,143.9522,81.3359,196.4248c1.9727,1.9727,4.5474,2.9483,7.1431,2.9483c2.5747,0,5.1597-0.9756,7.1226-2.9483
				c3.955-3.9453,3.955-10.3516,0-14.2861C274.2305,561.4902,247.4541,496.8081,247.4541,428.0039z"/>
			<path fill="#7CCACB" d="M701.373,231.6313c-3.9453-3.9453-10.331-3.9453-14.2656,0c-3.956,3.9454-3.956,10.3306,0,14.2759
				c48.6309,48.6621,75.4385,113.334,75.4385,182.0967c0,68.7734-26.8076,133.4551-75.4385,182.1387
				c-3.956,3.9345-3.956,10.3408,0,14.2861c1.9619,1.9727,4.5469,2.9483,7.1221,2.9483c2.5957,0,5.1709-0.9756,7.1435-2.9483
				c52.4727-52.4932,81.377-122.2529,81.377-196.4248S753.8457,284.104,701.373,231.6313z"/>
			<path fill="#7CCACB" d="M317.2656,428.0039c0-50.1885,19.5293-97.3037,54.9746-132.7178
				c3.9659-3.9355,3.9659-10.331,0.0205-14.2763c-3.9345-3.9556-10.3505-3.9453-14.2753-0.0103
				c-39.2872,39.2144-60.9239,91.4175-60.9239,147.0044c0,55.6084,21.6367,107.832,60.9239,147.0352
				c1.9829,1.9629,4.5473,2.9384,7.1328,2.9384c2.5849,0,5.1806-0.9863,7.1425-2.9589c3.9454-3.9454,3.9454-10.3409-0.0205-14.2862
				C336.7949,525.3496,317.2656,478.2134,317.2656,428.0039z"/>
			<path fill="#7CCACB" d="M652.0039,280.9995c-3.9346-3.935-10.3613-3.9453-14.2851,0.0103
				c-3.9454,3.9453-3.9454,10.3408,0,14.2763c35.455,35.4141,54.9745,82.5498,54.9745,132.7178
				c0,50.1992-19.5196,97.335-54.954,132.7285c-3.9659,3.9453-3.9659,10.3408-0.0205,14.2862
				c1.9619,1.9834,4.5576,2.9589,7.1533,2.9589c2.5742,0,5.1592-0.9755,7.122-2.9482
				c39.2657-39.1934,60.9034-91.438,60.9034-147.0254C712.8975,372.4268,691.2598,320.2246,652.0039,280.9995z"/>
			<path fill="#7CCACB" d="M421.6504,330.3574c-3.9453-3.9453-10.3721-3.9453-14.2861-0.0102
				c-26.1123,26.06-40.4917,60.7475-40.4917,97.6567c0,36.9199,14.3794,71.6074,40.4917,97.668
				c1.9726,1.9619,4.5468,2.9482,7.1323,2.9482c2.5854,0,5.1811-0.9863,7.1538-2.959c3.9346-3.9453,3.9346-10.3311-0.021-14.2763
				c-22.2808-22.2491-34.5527-51.8599-34.5527-83.3809c0-31.5107,12.2719-61.1103,34.5527-83.3496
				C425.585,340.709,425.585,334.3027,421.6504,330.3574z"/>
			<path fill="#7CCACB" d="M602.6465,330.3574c-3.9453-3.9453-10.3408-3.9453-14.2754,0c-3.9561,3.9453-3.9561,10.3408,0,14.2862
				c22.2598,22.2597,34.5107,51.8603,34.5107,83.3603c0,31.5107-12.2509,61.1108-34.5107,83.3916
				c-3.9561,3.9346-3.9561,10.3311,0,14.2764c1.9619,1.9619,4.5469,2.9482,7.1221,2.9482c2.5957,0,5.1709-0.9863,7.1533-2.9482
				c26.0801-26.0811,40.4394-60.7686,40.4394-97.668C643.0859,391.105,628.7266,356.4385,602.6465,330.3574z"/>
		</g>
		<g>
			<path fill="#D5D0BB" d="M599.2412,781.3281c-4.4131,0-8.4717-2.9179-9.708-7.3828l-84.5435-302.6572l-84.5229,302.6572
				c-1.4951,5.3789-7.1123,8.4824-12.4385,7.0088c-5.3677-1.4951-8.5029-7.0713-7.0185-12.4482l103.9799-372.3033l104.0005,372.3033
				c1.4844,5.3769-1.6504,10.9531-7.0185,12.4482C601.0586,781.2129,600.1543,781.3281,599.2412,781.3281L599.2412,781.3281z"/>
		</g>
		<g>
			<path fill="#D5D0BB" d="M422.1689,761.1338c-3.8408,0-7.5166-2.2119-9.1982-5.9492c-2.3052-5.0771-0.042-11.0576,5.0459-13.3622
				l140.5254-63.5197c5.0869-2.3144,11.0576-0.041,13.3516,5.0459c2.3056,5.0772,0.0517,11.0674-5.0352,13.3623l-140.5259,63.5196
				C424.9829,760.833,423.5708,761.1338,422.1689,761.1338L422.1689,761.1338z"/>
		</g>
		<g>
			<path fill="#D5D0BB" d="M587.8105,761.1338c-1.3291,0-2.6484-0.2705-3.9453-0.8096L443.1626,700.584
				c-5.1289-2.1807-7.5273-8.1094-5.3472-13.2276c2.17-5.1494,8.1397-7.5478,13.2378-5.3574l140.7027,59.7295
				c5.1385,2.1914,7.5478,8.1094,5.3574,13.248C595.4824,758.8184,591.7344,761.1338,587.8105,761.1338L587.8105,761.1338z"/>
		</g>
		<g>
			<path fill="#D5D0BB" d="M435.8848,691.3018c-3.6651,0-7.2266-2.0245-9.002-5.5127c-2.5439-4.963-0.5605-11.0469,4.4126-13.6016
				l120.9761-61.7334c4.9726-2.5537,11.0469-0.5605,13.5801,4.4023c2.5429,4.962,0.5605,11.0567-4.4023,13.5801l-120.9863,61.7549
				C438.9888,690.9385,437.4316,691.3018,435.8848,691.3018L435.8848,691.3018z"/>
		</g>
		<g>
			<path fill="#D5D0BB" d="M571.998,683.7021c-1.3291,0-2.6582-0.2705-3.9667-0.8095l-117.6114-49.9297
				c-5.1396-2.1797-7.5273-8.1084-5.3574-13.2373c2.1904-5.1494,8.1191-7.5166,13.248-5.3467l117.6221,49.918
				c5.1396,2.1806,7.5381,8.0986,5.3682,13.248C579.6602,681.3965,575.9121,683.7021,571.998,683.7021L571.998,683.7021z"/>
		</g>
		<g>
			<path fill="#F36360" d="M550.5479,421.2139c0,25.6963-20.8272,46.5654-46.5445,46.5654
				c-25.7173,0-46.5757-20.8691-46.5757-46.5654c0-25.7071,20.8584-46.5547,46.5757-46.5547
				C529.7207,374.6592,550.5479,395.5068,550.5479,421.2139z"/>
			<path fill="#B64A48" d="M504.0034,477.8809c-31.251,0-56.6567-25.4263-56.6567-56.667c0-31.2403,25.4057-56.6465,56.6567-56.6465
				c31.2505,0,56.646,25.4062,56.646,56.6465C560.6494,452.4546,535.2539,477.8809,504.0034,477.8809L504.0034,477.8809z
				 M504.0034,384.7612c-20.1108,0-36.4634,16.3628-36.4634,36.4527c0,20.1006,16.3526,36.4629,36.4634,36.4629
				c20.0904,0,36.4419-16.3623,36.4419-36.4629C540.4453,401.124,524.0938,384.7612,504.0034,384.7612L504.0034,384.7612z"/>
		</g>
	</g>
</g>
</svg>
