<?xml version="1.0" encoding="UTF-8" standalone="no"?>
<svg
   xmlns:dc="http://purl.org/dc/elements/1.1/"
   xmlns:cc="http://creativecommons.org/ns#"
   xmlns:rdf="http://www.w3.org/1999/02/22-rdf-syntax-ns#"
   xmlns:svg="http://www.w3.org/2000/svg"
   xmlns="http://www.w3.org/2000/svg"
   xmlns:xlink="http://www.w3.org/1999/xlink"
   xmlns:sodipodi="http://sodipodi.sourceforge.net/DTD/sodipodi-0.dtd"
   xmlns:inkscape="http://www.inkscape.org/namespaces/inkscape"
   version="1.1"
   x="0"
   y="0"
   width="647.221"
   height="218.24"
   viewBox="0, 0, 647.221, 218.24"
   id="svg604"
   sodipodi:docname="MCTS.svg"
   inkscape:export-filename="G:\jekyll\dominikpeter.github.io\assets\img\pexels\MCTS.png"
   inkscape:export-xdpi="305"
   inkscape:export-ydpi="305"
   inkscape:version="0.92.3 (2405546, 2018-03-11)">
  <metadata
     id="metadata610">
    <rdf:RDF>
      <cc:Work
         rdf:about="">
        <dc:format>image/svg+xml</dc:format>
        <dc:type
           rdf:resource="http://purl.org/dc/dcmitype/StillImage" />
      </cc:Work>
    </rdf:RDF>
  </metadata>
  <defs
     id="defs608">
    <linearGradient
       id="linearGradient3545"
       inkscape:collect="always">
      <stop
         id="stop3541"
         offset="0"
         style="stop-color:#1c2541;stop-opacity:1" />
      <stop
         id="stop3543"
         offset="1"
         style="stop-color:#5bc0be;stop-opacity:1" />
    </linearGradient>
    <linearGradient
       inkscape:collect="always"
       xlink:href="#linearGradient3545"
       id="linearGradient3537"
       x1="321.38358"
       y1="-19.171095"
       x2="322.08362"
       y2="179.52592"
       gradientUnits="userSpaceOnUse"
       gradientTransform="matrix(0.9784159,0,0,0.80054754,11.713484,23.471233)" />
    <linearGradient
       inkscape:collect="always"
       xlink:href="#linearGradient3545"
       id="linearGradient1023"
       x1="-0.70355242"
       y1="110.58299"
       x2="994.76935"
       y2="110.19237"
       gradientUnits="userSpaceOnUse" />
  </defs>
  <sodipodi:namedview
     pagecolor="#ffffff"
     bordercolor="#666666"
     borderopacity="1"
     objecttolerance="10"
     gridtolerance="10"
     guidetolerance="10"
     inkscape:pageopacity="0"
     inkscape:pageshadow="2"
     inkscape:window-width="3200"
     inkscape:window-height="1675"
     id="namedview606"
     showgrid="false"
     inkscape:zoom="2.56"
     inkscape:cx="268.17604"
     inkscape:cy="102.82366"
     inkscape:window-x="-13"
     inkscape:window-y="-13"
     inkscape:window-maximized="1"
     inkscape:current-layer="svg604"
     showguides="true" />
  <g
     inkscape:groupmode="layer"
     id="layer1"
     inkscape:label="Layer 1">
    <path
       style="fill:url(#linearGradient1023);fill-opacity:1;stroke:#1c2541;stroke-width:0.61951715;stroke-miterlimit:4;stroke-dasharray:none;stroke-opacity:1;paint-order:markers fill stroke"
       d="M -0.39379388,0.05732993 H 391.25977 653.05335 V 221.10866 H -0.39379388 Z"
       id="rect1894"
       inkscape:connector-curvature="0"
       sodipodi:nodetypes="cccccc"
       inkscape:transform-center-x="161.32812"
       inkscape:transform-center-y="10.9375" />
  </g>
  <g
     id="Layer_1"
     transform="matrix(0.9906905,0,0,1,12.904639,-98.322495)"
     style="fill:#3a506b;fill-opacity:0.95461204;stroke:#ffffff;stroke-opacity:1">
    <g
       id="MCTS_(English)"
       transform="translate(-3.4471456,-0.97227182)"
       style="fill:#3a506b;fill-opacity:0.95461204;stroke:#ffffff;stroke-opacity:1">
      <g
         id="g302"
         style="fill:#3a506b;fill-opacity:0.99274313;stroke:#ffffff;stroke-opacity:1"
         transform="translate(-335.15134,-8.59375)">
        <path
           d="m 447.328,143.193 c 0,-7.563 -6.064,-13.627 -13.627,-13.627 -7.563,0 -13.627,6.064 -13.627,13.627 0,7.563 6.064,13.627 13.627,13.627 7.563,0 13.627,-6.064 13.627,-13.627 z m -13.627,0"
           id="path296"
           inkscape:connector-curvature="0"
           style="fill:#ffffff;fill-opacity:1;stroke:#ffffff;stroke-width:0.80000001;stroke-opacity:1" />
        <g
           aria-label="12/21"
           transform="translate(433.201,142.443)"
           id="text300"
           style="fill:#3a506b;fill-opacity:0.99274313;stroke:#ffffff;stroke-opacity:1" />
      </g>
      <g
         id="g314"
         style="fill:#5bc0be;fill-opacity:1;stroke:#ffffff;stroke-opacity:1"
         transform="translate(-335.15134,-8.59375)">
        <g
           id="g308"
           style="fill:#5bc0be;fill-opacity:1;stroke:#ffffff;stroke-opacity:1">
          <path
             d="m 374.128,177.336 c 0,-6.415 -5.144,-11.559 -11.559,-11.559 -6.415,0 -11.559,5.144 -11.559,11.559 0,6.416 5.144,11.56 11.559,11.56 6.415,0 11.559,-5.144 11.559,-11.56 z m -11.559,0"
             id="path304"
             inkscape:connector-curvature="0"
             style="fill:#5bc0be;fill-opacity:1;stroke:#ffffff;stroke-opacity:1" />
          <path
             d="m 374.128,177.336 c 0,-6.415 -5.144,-11.559 -11.559,-11.559 -6.415,0 -11.559,5.144 -11.559,11.559 0,6.416 5.144,11.56 11.559,11.56 6.415,0 11.559,-5.144 11.559,-11.56 z m -11.559,0"
             id="path306"
             inkscape:connector-curvature="0"
             style="fill:#f6fffe;fill-opacity:0.99274313;stroke:#ffffff;stroke-width:0.80000001;stroke-opacity:1" />
        </g>
      </g>
      <g
         id="g326"
         style="fill:#3a506b;fill-opacity:0.95461204;stroke:#ffffff;stroke-opacity:1"
         transform="translate(-335.15134,-8.59375)">
        <g
           id="g320"
           style="fill:#3a506b;fill-opacity:0.95461204;stroke:#ffffff;stroke-opacity:1">
          <path
             d="m 443.331,177.336 c 0,-5.344 -4.286,-9.63 -9.63,-9.63 -5.345,0 -9.63,4.286 -9.63,9.63 0,5.345 4.285,9.63 9.63,9.63 5.344,0 9.63,-4.285 9.63,-9.63 z m -9.63,0"
             id="path316"
             inkscape:connector-curvature="0"
             style="fill:#3a506b;fill-opacity:0.95461204;stroke:#ffffff;stroke-opacity:1" />
          <path
             d="m 443.331,177.336 c 0,-5.344 -4.286,-9.63 -9.63,-9.63 -5.345,0 -9.63,4.286 -9.63,9.63 0,5.345 4.285,9.63 9.63,9.63 5.344,0 9.63,-4.285 9.63,-9.63 z m -9.63,0"
             id="path318"
             inkscape:connector-curvature="0"
             style="fill:#ffffff;fill-opacity:0.99274313;stroke:#ffffff;stroke-width:0.80000001;stroke-opacity:1" />
        </g>
      </g>
      <g
         id="g338"
         style="fill:#3a506b;fill-opacity:0.95461204;stroke:#ffffff;stroke-opacity:1"
         transform="translate(-335.15134,-8.59375)">
        <g
           id="g332"
           style="fill:#d84e69;fill-opacity:1;stroke:#ffffff;stroke-opacity:1">
          <path
             d="m 471.784,177.336 c 0,-5.344 -4.286,-9.63 -9.631,-9.63 -5.344,0 -9.63,4.286 -9.63,9.63 0,5.345 4.286,9.63 9.63,9.63 5.345,0 9.631,-4.285 9.631,-9.63 z m -9.631,0"
             id="path328"
             inkscape:connector-curvature="0"
             style="fill:#d84e69;fill-opacity:1;stroke:#ffffff;stroke-opacity:1" />
          <path
             d="m 471.784,177.336 c 0,-5.344 -4.286,-9.63 -9.631,-9.63 -5.344,0 -9.63,4.286 -9.63,9.63 0,5.345 4.286,9.63 9.63,9.63 5.345,0 9.631,-4.285 9.631,-9.63 z m -9.631,0"
             id="path330"
             inkscape:connector-curvature="0"
             style="fill:#ffffff;fill-opacity:0.98487073;stroke:#ffffff;stroke-width:0.80000001;stroke-opacity:1" />
        </g>
      </g>
      <g
         id="g346"
         style="fill:#ef646b;fill-opacity:0.95461202;stroke:#ffffff;stroke-opacity:1"
         transform="translate(-335.15134,-8.59375)">
        <path
           d="m 357.973,211.479 c 0,-5.344 -4.286,-9.63 -9.631,-9.63 -5.344,0 -9.63,4.286 -9.63,9.63 0,5.345 4.286,9.631 9.63,9.631 5.345,0 9.631,-4.286 9.631,-9.631 z m -9.631,0"
           id="path340"
           inkscape:connector-curvature="0"
           style="fill:#ffffff;fill-opacity:0.98487073;stroke:#ffffff;stroke-width:0.80000001;stroke-opacity:1" />
      </g>
      <g
         id="g354"
         style="fill:#3a506b;fill-opacity:0.95461204;stroke:#ffffff;stroke-opacity:1"
         transform="translate(-335.15134,-8.59375)">
        <path
           d="m 386.425,211.479 c 0,-5.344 -4.285,-9.63 -9.63,-9.63 -5.344,0 -9.63,4.286 -9.63,9.63 0,5.345 4.286,9.631 9.63,9.631 5.345,0 9.63,-4.286 9.63,-9.631 z m -9.63,0"
           id="path348"
           inkscape:connector-curvature="0"
           style="fill:#ffffff;fill-opacity:0.99274313;stroke:#ffffff;stroke-width:0.80000001;stroke-opacity:1" />
      </g>
      <g
         id="g362"
         style="fill:#e66169;fill-opacity:1;stroke:#ffffff;stroke-opacity:1"
         transform="translate(-335.15134,-8.59375)">
        <path
           d="m 414.878,211.479 c 0,-5.344 -4.285,-9.63 -9.63,-9.63 -5.345,0 -9.63,4.286 -9.63,9.63 0,5.345 4.285,9.631 9.63,9.631 5.345,0 9.63,-4.286 9.63,-9.631 z m -9.63,0"
           id="path356"
           inkscape:connector-curvature="0"
           style="fill:#ffffff;fill-opacity:0.98487073;stroke:#ffffff;stroke-width:0.80000001;stroke-opacity:1" />
      </g>
      <g
         id="g370"
         style="fill:#3a506b;fill-opacity:0.95461204;stroke:#ffffff;stroke-opacity:1"
         transform="translate(-335.15134,-8.59375)">
        <path
           d="m 443.331,211.479 c 0,-5.344 -4.286,-9.63 -9.63,-9.63 -5.345,0 -9.63,4.286 -9.63,9.63 0,5.345 4.285,9.631 9.63,9.631 5.344,0 9.63,-4.286 9.63,-9.631 z m -9.63,0"
           id="path364"
           inkscape:connector-curvature="0"
           style="fill:#ffffff;fill-opacity:0.98487073;stroke:#ffffff;stroke-width:0.80000001;stroke-opacity:1" />
      </g>
      <g
         id="g378"
         style="fill:#3a506b;fill-opacity:0.95461204;stroke:#ffffff;stroke-opacity:1"
         transform="translate(-335.15134,-8.59375)">
        <path
           d="m 471.784,211.479 c 0,-5.344 -4.286,-9.63 -9.631,-9.63 -5.344,0 -9.63,4.286 -9.63,9.63 0,5.345 4.286,9.631 9.63,9.631 5.345,0 9.631,-4.286 9.631,-9.631 z m -9.631,0"
           id="path372"
           inkscape:connector-curvature="0"
           style="fill:#ffffff;fill-opacity:0.98487073;stroke:#ffffff;stroke-width:0.80000001;stroke-opacity:1" />
      </g>
      <g
         id="g390"
         style="fill:#3a506b;fill-opacity:0.95461204;stroke:#ffffff;stroke-opacity:1"
         transform="translate(-335.15134,-8.59375)">
        <g
           id="g384"
           style="fill:#3a506b;fill-opacity:0.95461204;stroke:#ffffff;stroke-opacity:1">
          <path
             d="m 372.199,245.623 c 0,-5.345 -4.286,-9.63 -9.63,-9.63 -5.345,0 -9.63,4.285 -9.63,9.63 0,5.345 4.285,9.63 9.63,9.63 5.344,0 9.63,-4.285 9.63,-9.63 z m -9.63,0"
             id="path380"
             inkscape:connector-curvature="0"
             style="fill:#3a506b;fill-opacity:0.95461204;stroke:#ffffff;stroke-opacity:1" />
          <path
             d="m 372.199,245.623 c 0,-5.345 -4.286,-9.63 -9.63,-9.63 -5.345,0 -9.63,4.285 -9.63,9.63 0,5.345 4.285,9.63 9.63,9.63 5.344,0 9.63,-4.285 9.63,-9.63 z m -9.63,0"
             id="path382"
             inkscape:connector-curvature="0"
             style="fill:#ffffff;fill-opacity:0.98487073;stroke:#ffffff;stroke-width:0.80000001;stroke-opacity:1" />
        </g>
      </g>
      <g
         id="g402"
         style="fill:#3a506b;fill-opacity:0.95461204;stroke:#ffffff;stroke-opacity:1"
         transform="translate(-335.15134,-8.59375)">
        <g
           id="g396"
           style="fill:#3a506b;fill-opacity:0.95461204;stroke:#ffffff;stroke-opacity:1">
          <path
             d="m 400.652,245.623 c 0,-5.345 -4.286,-9.63 -9.63,-9.63 -5.345,0 -9.631,4.285 -9.631,9.63 0,5.345 4.286,9.63 9.631,9.63 5.344,0 9.63,-4.285 9.63,-9.63 z m -9.63,0"
             id="path392"
             inkscape:connector-curvature="0"
             style="fill:#3a506b;fill-opacity:0.95461204;stroke:#ffffff;stroke-opacity:1" />
          <path
             d="m 400.652,245.623 c 0,-5.345 -4.286,-9.63 -9.63,-9.63 -5.345,0 -9.631,4.285 -9.631,9.63 0,5.345 4.286,9.63 9.631,9.63 5.344,0 9.63,-4.285 9.63,-9.63 z m -9.63,0"
             id="path394"
             inkscape:connector-curvature="0"
             style="fill:#ffffff;fill-opacity:0.99274313;stroke:#ffffff;stroke-width:0.80000001;stroke-opacity:1" />
        </g>
      </g>
      <g
         id="g410"
         style="fill:#5bc0be;fill-opacity:1;stroke:#ffffff;stroke-opacity:1"
         transform="translate(-335.15134,-8.59375)">
        <path
           d="m 400.652,279.766 c 0,-5.344 -4.286,-9.63 -9.63,-9.63 -5.345,0 -9.631,4.286 -9.631,9.63 0,5.345 4.286,9.63 9.631,9.63 5.344,0 9.63,-4.285 9.63,-9.63 z m -9.63,0"
           id="path404"
           inkscape:connector-curvature="0"
           style="fill:#ffffff;fill-opacity:1;stroke:#ffffff;stroke-width:0.80000001;stroke-opacity:0.98984033" />
      </g>
      <path
         d="m 85.854659,140.69225 -47.614,22.855"
         id="path416"
         inkscape:connector-curvature="0"
         style="fill:#3a506b;fill-opacity:0.95461204;stroke:#ffffff;stroke-width:0.80000001;stroke-opacity:1" />
      <path
         d="m 98.549659,148.62625 v 10.086"
         id="path418"
         inkscape:connector-curvature="0"
         style="fill:#3a506b;fill-opacity:0.95461204;stroke:#ffffff;stroke-width:0.80000001;stroke-opacity:1" />
      <path
         d="m 107.54466,145.39325 13.025,15.631"
         id="path420"
         inkscape:connector-curvature="0"
         style="fill:#3a506b;fill-opacity:0.95461204;stroke:#ffffff;stroke-width:0.80000001;stroke-opacity:1" />
      <path
         d="m 22.806659,179.80825 -5.749,13.797"
         id="path422"
         inkscape:connector-curvature="0"
         style="fill:#3a506b;fill-opacity:0.95461204;stroke:#ffffff;stroke-width:0.80000001;stroke-opacity:1" />
      <path
         d="m 32.027659,179.80825 5.749,13.797"
         id="path424"
         inkscape:connector-curvature="0"
         style="fill:#3a506b;fill-opacity:0.95461204;stroke:#ffffff;stroke-width:0.80000001;stroke-opacity:1" />
      <path
         d="m 92.117659,176.46025 -15.589,18.707"
         id="path426"
         inkscape:connector-curvature="0"
         style="fill:#3a506b;fill-opacity:0.95461204;stroke:#ffffff;stroke-width:0.80000001;stroke-opacity:1" />
      <path
         d="m 98.549659,178.77225 v 14.083"
         id="path428"
         inkscape:connector-curvature="0"
         style="fill:#3a506b;fill-opacity:0.95461204;stroke:#ffffff;stroke-width:0.80000001;stroke-opacity:1" />
      <path
         d="m 104.98166,176.46025 15.588,18.707"
         id="path430"
         inkscape:connector-curvature="0"
         style="fill:#3a506b;fill-opacity:0.95461204;stroke:#ffffff;stroke-width:0.80000001;stroke-opacity:1" />
      <path
         d="m 37.776659,212.16625 -6.492,15.583"
         id="path432"
         inkscape:connector-curvature="0"
         style="fill:#3a506b;fill-opacity:0.95461204;stroke:#ffffff;stroke-width:0.80000001;stroke-opacity:1" />
      <path
         d="m 45.510659,212.16625 6.493,15.583"
         id="path434"
         inkscape:connector-curvature="0"
         style="fill:#3a506b;fill-opacity:0.95461204;stroke:#ffffff;stroke-width:0.80000001;stroke-opacity:1" />
      <path
         d="m 55.870659,247.05925 v 14.083"
         id="path436"
         inkscape:connector-curvature="0"
         style="fill:#3a506b;fill-opacity:0.95461204;stroke:#ffffff;stroke-width:0.80000001;stroke-opacity:1" />
      <g
         id="g442"
         style="fill:#3a506b;fill-opacity:0.95461204;stroke:#ffffff;stroke-opacity:1"
         transform="translate(-335.15134,-8.59375)">
        <path
           d="m 391.022,289.796 m 0,0 c 0,1.25 2.5,1.875 2.5,3.125 0,0.913 -1.25,1.705 -2.5,2.5 -1.25,0.796 -2.5,1.588 -2.5,2.5 0,0.913 1.25,1.705 2.5,2.5 1.25,0.796 2.5,1.588 2.5,2.5 0,0.913 -1.25,1.705 -2.5,2.5 -1.25,0.796 -2.5,1.588 -2.5,2.5 0,1.25 2.5,1.875 2.5,3.125 v 3.544"
           id="path438"
           inkscape:connector-curvature="0"
           style="fill:#3a506b;fill-opacity:0.95461204;stroke:#ffffff;stroke-width:0.80000001;stroke-opacity:1" />
        <path
           d="m 393.102,313.03 c -0.78,0.13 -1.95,1.56 -2.08,1.95 -0.13,-0.39 -1.3,-1.82 -2.08,-1.95"
           id="path440"
           inkscape:connector-curvature="0"
           style="fill:#3a506b;fill-opacity:0.95461204;stroke:#ffffff;stroke-width:0.63999999;stroke-linecap:round;stroke-linejoin:round;stroke-opacity:1" />
      </g>
    </g>
  </g>
</svg>
